<svg width="16" height="14" viewBox="0 0 16 14" fill="none" xmlns="http://www.w3.org/2000/svg">
<path d="M6.20005 6.1C6.91613 6.1 7.60289 5.81553 8.10924 5.30919C8.61559 4.80284 8.90005 4.11608 8.90005 3.4C8.90005 2.68391 8.61559 1.99716 8.10924 1.49081C7.60289 0.984461 6.91613 0.699997 6.20005 0.699997C5.48396 0.699997 4.79721 0.984461 4.29086 1.49081C3.78451 1.99716 3.50005 2.68391 3.50005 3.4C3.50005 4.11608 3.78451 4.80284 4.29086 5.30919C4.79721 5.81553 5.48396 6.1 6.20005 6.1ZM6.20005 7.9C7.63222 7.9 9.00573 8.46892 10.0184 9.48162C11.0311 10.4943 11.6 11.8678 11.6 13.3H0.800049C0.800049 11.8678 1.36898 10.4943 2.38167 9.48162C3.39437 8.46892 4.76788 7.9 6.20005 7.9ZM13.4 4.3C13.4 4.0613 13.3052 3.83238 13.1364 3.6636C12.9677 3.49482 12.7387 3.4 12.5 3.4C12.2614 3.4 12.0324 3.49482 11.8637 3.6636C11.6949 3.83238 11.6 4.0613 11.6 4.3V5.2H10.7C10.4614 5.2 10.2324 5.29482 10.0637 5.4636C9.89487 5.63238 9.80005 5.8613 9.80005 6.1C9.80005 6.33869 9.89487 6.56761 10.0637 6.73639C10.2324 6.90518 10.4614 7 10.7 7H11.6V7.9C11.6 8.13869 11.6949 8.36761 11.8637 8.53639C12.0324 8.70518 12.2614 8.8 12.5 8.8C12.7387 8.8 12.9677 8.70518 13.1364 8.53639C13.3052 8.36761 13.4 8.13869 13.4 7.9V7H14.3C14.5387 7 14.7677 6.90518 14.9364 6.73639C15.1052 6.56761 15.2 6.33869 15.2 6.1C15.2 5.8613 15.1052 5.63238 14.9364 5.4636C14.7677 5.29482 14.5387 5.2 14.3 5.2H13.4V4.3Z" fill="white"/>
</svg>
