<svg width="14" height="13" viewBox="0 0 14 13" fill="none" xmlns="http://www.w3.org/2000/svg">
<path d="M0.81678 12.0869C0.561225 12.0869 0.372336 11.9758 0.250114 11.7536C0.127892 11.5314 0.127892 11.3091 0.250114 11.0869L6.41678 0.420247C6.539 0.198025 6.73345 0.0869141 7.00011 0.0869141C7.26678 0.0869141 7.46122 0.198025 7.58345 0.420247L13.7501 11.0869C13.8723 11.3091 13.8723 11.5314 13.7501 11.7536C13.6279 11.9758 13.439 12.0869 13.1834 12.0869H0.81678ZM7.00011 4.75358C6.81122 4.75358 6.653 4.81736 6.52545 4.94491C6.39745 5.07291 6.33345 5.23136 6.33345 5.42025V7.42025C6.33345 7.60914 6.39745 7.76736 6.52545 7.89491C6.653 8.02291 6.81122 8.08691 7.00011 8.08691C7.189 8.08691 7.34745 8.02291 7.47545 7.89491C7.603 7.76736 7.66678 7.60914 7.66678 7.42025V5.42025C7.66678 5.23136 7.603 5.07291 7.47545 4.94491C7.34745 4.81736 7.189 4.75358 7.00011 4.75358ZM7.00011 10.0869C7.189 10.0869 7.34745 10.0229 7.47545 9.89491C7.603 9.76736 7.66678 9.60914 7.66678 9.42025C7.66678 9.23136 7.603 9.07314 7.47545 8.94558C7.34745 8.81758 7.189 8.75358 7.00011 8.75358C6.81122 8.75358 6.653 8.81758 6.52545 8.94558C6.39745 9.07314 6.33345 9.23136 6.33345 9.42025C6.33345 9.60914 6.39745 9.76736 6.52545 9.89491C6.653 10.0229 6.81122 10.0869 7.00011 10.0869ZM1.96678 10.7536H12.0334L7.00011 2.08691L1.96678 10.7536Z" fill="#1D9CD3"/>
</svg>
