<svg width="24" height="24" viewBox="0 0 24 24" fill="none" xmlns="http://www.w3.org/2000/svg">
<circle cx="12" cy="12" r="12" fill="black" fill-opacity="0.4"/>
<path d="M6.39052 9.05718C6.14048 9.30723 6 9.64637 6 9.99999V16C6 16.3536 6.14048 16.6927 6.39052 16.9428C6.64057 17.1928 6.97971 17.3333 7.33333 17.3333H16.6667C17.0203 17.3333 17.3594 17.1928 17.6095 16.9428C17.8595 16.6927 18 16.3536 18 16V9.99999C18 9.64637 17.8595 9.30723 17.6095 9.05718C17.3594 8.80713 17.0203 8.66666 16.6667 8.66666H16.0467C15.8272 8.66669 15.6111 8.61255 15.4176 8.50905C15.2241 8.40555 15.0591 8.25588 14.9373 8.07332L14.396 7.25999C14.2742 7.07743 14.1092 6.92777 13.9157 6.82426C13.7222 6.72076 13.5061 6.66662 13.2867 6.66666H10.7133C10.4939 6.66662 10.2778 6.72076 10.0843 6.82426C9.89077 6.92777 9.7258 7.07743 9.604 7.25999L9.06267 8.07332C8.94087 8.25588 8.77589 8.40555 8.58238 8.50905C8.38886 8.61255 8.17279 8.66669 7.95333 8.66666H7.33333C6.97971 8.66666 6.64057 8.80713 6.39052 9.05718Z" stroke="white" stroke-linecap="round" stroke-linejoin="round"/>
<path d="M13.4142 14.0809C13.7893 13.7058 14 13.1971 14 12.6667C14 12.1362 13.7893 11.6275 13.4142 11.2525C13.0391 10.8774 12.5304 10.6667 12 10.6667C11.4696 10.6667 10.9609 10.8774 10.5858 11.2525C10.2107 11.6275 10 12.1362 10 12.6667C10 13.1971 10.2107 13.7058 10.5858 14.0809C10.9609 14.456 11.4696 14.6667 12 14.6667C12.5304 14.6667 13.0391 14.456 13.4142 14.0809Z" stroke="white" stroke-linecap="round" stroke-linejoin="round"/>
</svg>
