<svg width="12" height="13" viewBox="0 0 12 13" fill="none" xmlns="http://www.w3.org/2000/svg">
<path d="M5.99992 5.33339V12.3334Z" fill="#646364"/>
<path d="M3.08325 8.83339C2.50868 8.83403 1.95407 8.62265 1.52568 8.23974C1.09729 7.85683 0.825238 7.32933 0.761652 6.75828C0.698066 6.18723 0.847414 5.6128 1.18108 5.14504C1.51475 4.67728 2.00928 4.34907 2.56992 4.22331C2.40771 3.46678 2.55267 2.67679 2.97291 2.02714C3.39316 1.37749 4.05427 0.921395 4.8108 0.759182C5.56733 0.596969 6.35731 0.74193 7.00696 1.16218C7.65661 1.58242 8.11271 2.24353 8.27492 3.00006H8.33325C9.05656 2.99933 9.75433 3.26739 10.2911 3.75219C10.8279 4.237 11.1654 4.90396 11.2381 5.6236C11.3108 6.34324 11.1135 7.06423 10.6845 7.64658C10.2555 8.22894 9.62543 8.63112 8.91659 8.77506M7.74992 7.08339L5.99992 5.33339M5.99992 5.33339L4.24992 7.08339M5.99992 5.33339V12.3334" stroke="#646364" stroke-linecap="round" stroke-linejoin="round"/>
</svg>
