<svg width="11" height="11" viewBox="0 0 11 11" fill="none" xmlns="http://www.w3.org/2000/svg">
<path d="M4.13379 8.74805C4.13379 8.70703 4.09277 8.66602 4.03125 8.66602C3.96973 8.66602 3.92871 8.70703 3.92871 8.74805C3.92871 8.78906 3.96973 8.83008 4.03125 8.80957C4.09277 8.80957 4.13379 8.78906 4.13379 8.74805ZM3.49805 8.64551C3.49805 8.68652 3.53906 8.74805 3.60059 8.74805C3.6416 8.76855 3.70312 8.74805 3.72363 8.70703C3.72363 8.66602 3.70312 8.625 3.6416 8.60449C3.58008 8.58398 3.51855 8.60449 3.49805 8.64551ZM4.4209 8.625C4.35937 8.625 4.31836 8.66602 4.31836 8.72754C4.31836 8.76855 4.37988 8.78906 4.44141 8.76855C4.50293 8.74805 4.54395 8.72754 4.52344 8.68652C4.52344 8.64551 4.46191 8.60449 4.4209 8.625ZM5.75391 0.75C2.92383 0.75 0.75 2.92383 0.75 5.75391C0.75 8.03027 2.16504 9.97852 4.21582 10.6758C4.48242 10.7168 4.56445 10.5527 4.56445 10.4297C4.56445 10.2861 4.56445 9.58887 4.56445 9.1582C4.56445 9.1582 3.12891 9.46582 2.82129 8.54297C2.82129 8.54297 2.5957 7.94824 2.26758 7.80469C2.26758 7.80469 1.7959 7.47656 2.28809 7.47656C2.28809 7.47656 2.80078 7.51758 3.08789 8.00977C3.53906 8.80957 4.27734 8.58398 4.58496 8.44043C4.62598 8.1123 4.74902 7.88672 4.91309 7.74316C3.76465 7.62012 2.5957 7.45605 2.5957 5.4873C2.5957 4.91309 2.75977 4.64648 3.08789 4.27734C3.02637 4.13379 2.8623 3.60059 3.14941 2.88281C3.55957 2.75977 4.56445 3.43652 4.56445 3.43652C4.97461 3.31348 5.40527 3.27246 5.83594 3.27246C6.28711 3.27246 6.71777 3.31348 7.12793 3.43652C7.12793 3.43652 8.1123 2.73926 8.54297 2.88281C8.83008 3.60059 8.64551 4.13379 8.60449 4.27734C8.93262 4.64648 9.1377 4.91309 9.1377 5.4873C9.1377 7.45605 7.92773 7.62012 6.7793 7.74316C6.96387 7.90723 7.12793 8.21484 7.12793 8.70703C7.12793 9.38379 7.10742 10.2451 7.10742 10.4092C7.10742 10.5527 7.20996 10.7168 7.47656 10.6553C9.52734 9.97852 10.9219 8.03027 10.9219 5.75391C10.9219 2.92383 8.60449 0.75 5.75391 0.75ZM2.73926 7.8252C2.69824 7.8457 2.71875 7.90723 2.73926 7.94824C2.78027 7.96875 2.82129 7.98926 2.8623 7.96875C2.88281 7.94824 2.88281 7.88672 2.8418 7.8457C2.80078 7.8252 2.75977 7.80469 2.73926 7.8252ZM2.51367 7.66113C2.49316 7.70215 2.51367 7.72266 2.55469 7.74316C2.5957 7.76367 2.63672 7.76367 2.65723 7.72266C2.65723 7.70215 2.63672 7.68164 2.5957 7.66113C2.55469 7.64062 2.53418 7.64062 2.51367 7.66113ZM3.16992 8.39941C3.14941 8.41992 3.14941 8.48145 3.21094 8.52246C3.25195 8.56348 3.31348 8.58398 3.33398 8.54297C3.35449 8.52246 3.35449 8.46094 3.31348 8.41992C3.27246 8.37891 3.21094 8.3584 3.16992 8.39941ZM2.94434 8.0918C2.90332 8.1123 2.90332 8.17383 2.94434 8.21484C2.98535 8.25586 3.02637 8.27637 3.06738 8.25586C3.08789 8.23535 3.08789 8.17383 3.06738 8.13281C3.02637 8.0918 2.98535 8.07129 2.94434 8.0918Z" fill="#383637"/>
</svg>
