<svg width="14" height="14" viewBox="0 0 14 14" fill="none" xmlns="http://www.w3.org/2000/svg">
<path d="M13 8.33667C11.0937 9.10749 9.05628 9.50251 7 9.5C4.878 9.5 2.85333 9.08667 1 8.33667M7 7.5H7.00667M9.66667 3.5V2.16667C9.66667 1.81304 9.52619 1.47391 9.27614 1.22386C9.02609 0.973809 8.68696 0.833333 8.33333 0.833333H5.66667C5.31304 0.833333 4.97391 0.973809 4.72386 1.22386C4.47381 1.47391 4.33333 1.81304 4.33333 2.16667V3.5H9.66667ZM2.33333 12.8333H11.6667C12.0203 12.8333 12.3594 12.6929 12.6095 12.4428C12.8595 12.1928 13 11.8536 13 11.5V4.83333C13 4.47971 12.8595 4.14057 12.6095 3.89052C12.3594 3.64048 12.0203 3.5 11.6667 3.5H2.33333C1.97971 3.5 1.64057 3.64048 1.39052 3.89052C1.14048 4.14057 1 4.47971 1 4.83333V11.5C1 11.8536 1.14048 12.1928 1.39052 12.4428C1.64057 12.6929 1.97971 12.8333 2.33333 12.8333Z" stroke="#919090" stroke-linecap="round" stroke-linejoin="round"/>
</svg>
