<svg width="14" height="13" viewBox="0 0 14 13" fill="none" xmlns="http://www.w3.org/2000/svg">
<path d="M4.33333 3.16667V0.5M9.66667 3.16667V0.5M3.66667 5.83333H10.3333M2.33333 12.5H11.6667C12.0203 12.5 12.3594 12.3595 12.6095 12.1095C12.8595 11.8594 13 11.5203 13 11.1667V3.16667C13 2.81304 12.8595 2.47391 12.6095 2.22386C12.3594 1.97381 12.0203 1.83333 11.6667 1.83333H2.33333C1.97971 1.83333 1.64057 1.97381 1.39052 2.22386C1.14048 2.47391 1 2.81304 1 3.16667V11.1667C1 11.5203 1.14048 11.8594 1.39052 12.1095C1.64057 12.3595 1.97971 12.5 2.33333 12.5Z" stroke="#919090" stroke-linecap="round" stroke-linejoin="round"/>
</svg>
