<svg width="20" height="20" viewBox="0 0 20 20" fill="none" xmlns="http://www.w3.org/2000/svg">
<path d="M18.3914 10.6852C18.2091 10.6868 18.0334 10.6172 17.9017 10.4914L17.5536 10.1433L16.7 9.2897V10.4968V18.4C16.7 18.5857 16.6263 18.7637 16.495 18.895C16.3637 19.0263 16.1857 19.1 16 19.1H13.6C13.4144 19.1 13.2363 19.0263 13.1051 18.895C12.9738 18.7637 12.9 18.5857 12.9 18.4V16C12.9 15.5491 12.7209 15.1167 12.4021 14.7979C12.0833 14.4791 11.6509 14.3 11.2 14.3H8.80005C8.34918 14.3 7.91678 14.4791 7.59797 14.7979C7.27916 15.1167 7.10005 15.5491 7.10005 16V18.4C7.10005 18.5857 7.0263 18.7637 6.89502 18.895C6.76375 19.0263 6.5857 19.1 6.40005 19.1H4.00005C3.8144 19.1 3.63635 19.0263 3.50507 18.895C3.3738 18.7637 3.30005 18.5857 3.30005 18.4V10.4968V9.2897L2.4465 10.1433L2.09838 10.4914C1.96666 10.6172 1.791 10.6868 1.60871 10.6852C1.42517 10.6836 1.24961 10.61 1.11982 10.4802L0.766267 10.8338L1.11982 10.4802C0.990035 10.3505 0.916416 10.1749 0.914821 9.99135C0.913237 9.80907 0.982815 9.63342 1.10867 9.5017L9.50515 1.10522C9.50517 1.1052 9.50518 1.10518 9.5052 1.10517C9.63647 0.973969 9.81446 0.900269 10 0.900269C10.1856 0.900269 10.3636 0.973969 10.4949 1.10517C10.4949 1.10518 10.4949 1.1052 10.4949 1.10522L18.8914 9.5017C19.0173 9.63343 19.0869 9.80908 19.0853 9.99135C19.0837 10.1749 19.0101 10.3505 18.8803 10.4802L19.2338 10.8338L18.8803 10.4802C18.7505 10.61 18.5749 10.6836 18.3914 10.6852Z" fill="#CDCFD0" stroke="#CDCFD0"/>
</svg>
