<svg width="16" height="16" viewBox="0 0 16 16" fill="none" xmlns="http://www.w3.org/2000/svg">
<path d="M1.5 8C1.5 4.37614 4.37614 1.5 8 1.5M1.5 8C1.5 11.6239 4.37614 14.5 8 14.5M1.5 8C1.5 11.5761 4.42386 14.5 8 14.5M1.5 8C1.5 4.42386 4.42386 1.5 8 1.5M8 1.5C11.6239 1.5 14.5 4.37614 14.5 8M8 1.5C11.5761 1.5 14.5 4.42386 14.5 8M8 14.5C11.6239 14.5 14.5 11.6239 14.5 8M8 14.5C11.5761 14.5 14.5 11.5761 14.5 8" fill="#848283" stroke="#848283"/>
<path d="M10.7 11.5L8 8.8L5.3 11.5L4.5 10.7L7.2 8L4.5 5.3L5.3 4.5L8 7.2L10.7 4.5L11.5 5.3L8.8 8L11.5 10.7L10.7 11.5Z" fill="#848283"/>
</svg>
