<svg width="17" height="21" viewBox="0 0 17 21" fill="none" xmlns="http://www.w3.org/2000/svg">
<path d="M4.62588 15.9043H12.6759V14.4043H4.62588V15.9043ZM4.62588 11.6543H12.6759V10.1543H4.62588V11.6543ZM2.15088 20.1543C1.75088 20.1543 1.40088 20.0043 1.10088 19.7043C0.800879 19.4043 0.650879 19.0543 0.650879 18.6543V1.6543C0.650879 1.2543 0.800879 0.904297 1.10088 0.604297C1.40088 0.304297 1.75088 0.154297 2.15088 0.154297H11.1759L16.6509 5.6293V18.6543C16.6509 19.0543 16.5009 19.4043 16.2009 19.7043C15.9009 20.0043 15.5509 20.1543 15.1509 20.1543H2.15088ZM10.4259 6.3043V1.6543H2.15088V18.6543H15.1509V6.3043H10.4259Z" fill="#4E4D4D"/>
</svg>
