<svg width="30" height="34" viewBox="0 0 30 34" fill="none" xmlns="http://www.w3.org/2000/svg">
<g clip-path="url(#clip0_107_520)">
<path d="M29.5108 26.8299C28.5465 25.9702 27.7022 24.9847 27.0008 23.8999C26.235 22.4024 25.776 20.7671 25.6508 19.0899V14.1499C25.6574 11.5155 24.7018 8.96938 22.9635 6.98988C21.2252 5.01037 18.8239 3.73376 16.2108 3.3999V2.1099C16.2108 1.75584 16.0701 1.41628 15.8198 1.16591C15.5694 0.915554 15.2298 0.774902 14.8758 0.774902C14.5217 0.774902 14.1822 0.915554 13.9318 1.16591C13.6814 1.41628 13.5408 1.75584 13.5408 2.1099V3.4199C10.951 3.77783 8.57875 5.06216 6.86331 7.03501C5.14787 9.00786 4.20551 11.5355 4.21078 14.1499V19.0899C4.08554 20.7671 3.62656 22.4024 2.86078 23.8999C2.17166 24.9823 1.34098 25.9676 0.390781 26.8299C0.284113 26.9236 0.198623 27.039 0.139999 27.1683C0.0813747 27.2976 0.050961 27.4379 0.0507812 27.5799V28.9399C0.0507812 29.2051 0.156138 29.4595 0.343674 29.647C0.531211 29.8345 0.785565 29.9399 1.05078 29.9399H28.8508C29.116 29.9399 29.3704 29.8345 29.5579 29.647C29.7454 29.4595 29.8508 29.2051 29.8508 28.9399V27.5799C29.8506 27.4379 29.8202 27.2976 29.7616 27.1683C29.7029 27.039 29.6174 26.9236 29.5108 26.8299ZM2.13078 27.9399C3.06119 27.0411 3.88038 26.0339 4.57078 24.9399C5.53539 23.1314 6.09821 21.1359 6.22078 19.0899V14.1499C6.18112 12.9779 6.37771 11.81 6.79883 10.7156C7.21995 9.62116 7.85699 8.62269 8.67203 7.7796C9.48706 6.93652 10.4634 6.26607 11.543 5.80818C12.6225 5.35028 13.7831 5.11431 14.9558 5.11431C16.1284 5.11431 17.2891 5.35028 18.3686 5.80818C19.4481 6.26607 20.4245 6.93652 21.2395 7.7796C22.0546 8.62269 22.6916 9.62116 23.1127 10.7156C23.5339 11.81 23.7304 12.9779 23.6908 14.1499V19.0899C23.8134 21.1359 24.3762 23.1314 25.3408 24.9399C26.0312 26.0339 26.8504 27.0411 27.7808 27.9399H2.13078Z" fill="#F8FBFC"/>
<path d="M15.0003 33.28C15.6302 33.2655 16.2348 33.0287 16.7069 32.6114C17.1791 32.1942 17.4884 31.6234 17.5803 31H12.3203C12.4148 31.6403 12.7386 32.2245 13.2316 32.6439C13.7246 33.0633 14.3531 33.2894 15.0003 33.28V33.28Z" fill="#F8FBFC"/>
</g>
<defs>
<clipPath id="clip0_107_520">
<rect width="30" height="34" fill="white"/>
</clipPath>
</defs>
</svg>
