<svg width="21" height="21" viewBox="0 0 21 21" fill="none" xmlns="http://www.w3.org/2000/svg">
<path d="M11.9231 0.31897C14.3064 0.552303 16.3314 1.5023 17.9981 3.16897C19.6648 4.83564 20.6148 6.86064 20.8481 9.24397H13.7481C13.6148 8.81064 13.3856 8.44397 13.0606 8.14397C12.7356 7.84397 12.3564 7.6273 11.9231 7.49397V0.31897ZM13.4231 2.21897V6.56897C13.6564 6.71897 13.8814 6.8898 14.0981 7.08147C14.3148 7.27314 14.4898 7.49397 14.6231 7.74397H18.9481C18.5314 6.41064 17.8398 5.25647 16.8731 4.28147C15.9064 3.30647 14.7564 2.61897 13.4231 2.21897ZM9.8731 0.31897V7.49397C9.28976 7.7273 8.81893 8.1023 8.4606 8.61897C8.10226 9.13564 7.9231 9.71064 7.9231 10.344C7.9231 10.944 8.10226 11.4856 8.4606 11.969C8.81893 12.4523 9.28976 12.8023 9.8731 13.019V20.219C7.3231 19.9856 5.19393 18.9273 3.4856 17.044C1.77726 15.1606 0.923096 12.9273 0.923096 10.344C0.923096 7.76064 1.7731 5.50647 3.4731 3.58147C5.1731 1.65647 7.30643 0.56897 9.8731 0.31897ZM8.3731 2.21897C6.55643 2.71897 5.1106 3.7273 4.0356 5.24397C2.9606 6.76064 2.4231 8.46064 2.4231 10.344C2.4231 12.194 2.9731 13.8565 4.0731 15.3315C5.1731 16.8065 6.60643 17.8106 8.3731 18.344V13.994C7.75643 13.5773 7.27726 13.0523 6.9356 12.419C6.59393 11.7856 6.4231 11.094 6.4231 10.344C6.4231 9.59397 6.58976 8.88564 6.9231 8.21897C7.25643 7.5523 7.73976 7.0023 8.3731 6.56897V2.21897ZM13.7481 11.294H20.8481C20.6148 13.6773 19.6648 15.7023 17.9981 17.369C16.3314 19.0356 14.3064 19.9856 11.9231 20.219V13.019C12.3564 12.8856 12.7356 12.6731 13.0606 12.3815C13.3856 12.0898 13.6148 11.7273 13.7481 11.294ZM14.6231 12.794C14.4564 13.0273 14.2773 13.2523 14.0856 13.469C13.8939 13.6856 13.6731 13.8606 13.4231 13.994V18.319C14.7564 17.9356 15.9064 17.2523 16.8731 16.269C17.8398 15.2856 18.5314 14.1273 18.9481 12.794H14.6231Z" fill="#646364"/>
</svg>
