<svg width="20" height="16" viewBox="0 0 20 16" fill="none" xmlns="http://www.w3.org/2000/svg">
<path fill-rule="evenodd" clip-rule="evenodd" d="M18.8214 5.76335L19.3097 6.25163C19.4383 6.38021 19.4383 6.59017 19.3097 6.71875L18.9158 7.11263C19.0249 7.31445 19.1062 7.53418 19.1599 7.76367H19.6694C19.8517 7.76367 19.9998 7.91179 19.9998 8.09408V8.78418C19.9998 8.96647 19.8517 9.11458 19.6694 9.11458H19.1127C19.0444 9.33919 18.9467 9.55241 18.8247 9.74609L19.186 10.1058C19.3146 10.2344 19.3146 10.4443 19.186 10.5729L18.6977 11.0612C18.5691 11.1898 18.3592 11.1898 18.2306 11.0612L17.8367 10.6673C17.6349 10.7764 17.4168 10.8594 17.1857 10.9115V11.4209C17.1857 11.6032 17.0375 11.7513 16.8553 11.7513H16.1652C15.9829 11.7513 15.8347 11.6032 15.8347 11.4209V10.8643C15.6101 10.7959 15.3969 10.6982 15.2032 10.5762L14.8435 10.9375C14.715 11.0661 14.505 11.0661 14.3764 10.9375L13.8881 10.4492C13.7596 10.3206 13.7596 10.1107 13.8881 9.9821L14.282 9.58822C14.173 9.3864 14.09 9.16667 14.0379 8.93718H13.5284C13.3461 8.93718 13.198 8.78906 13.198 8.60677V7.91667C13.198 7.73438 13.3461 7.58626 13.5284 7.58626H14.0851C14.1534 7.36165 14.2511 7.14844 14.3732 6.95475L14.0135 6.59505C13.8849 6.46647 13.8849 6.25651 14.0135 6.12793L14.5017 5.63965C14.6303 5.51107 14.8403 5.51107 14.9689 5.63965L15.3627 6.03353C15.5646 5.92448 15.7843 5.84147 16.0138 5.78939V5.27995C16.0138 5.09766 16.1619 4.94954 16.3442 4.94954H17.0343C17.2166 4.94954 17.3647 5.09766 17.3647 5.27995V5.83496C17.5893 5.90332 17.8025 6.00098 17.9962 6.12305L18.3559 5.76335C18.4829 5.63477 18.6928 5.63477 18.8214 5.76335ZM4.74751 4.33268H7.41678H7.62348V4.53939V12.876V13.0827H7.41678H4.74751H4.5408V12.876V4.53939V4.33268H4.74751ZM5.28624 11.7497H5.84126V12.0394H5.28624V11.7497ZM5.28624 10.9424H5.84126V11.2321H5.28624V10.9424ZM5.28624 10.1253H5.84126V10.415H5.28624V10.1253ZM5.28624 9.3099H6.20747V9.59961H5.28624V9.3099ZM5.28624 8.49447H5.84126V8.78418H5.28624V8.49447ZM5.28624 7.67741H5.84126V7.96712H5.28624V7.67741ZM5.28624 6.86198H5.84126V7.15169H5.28624V6.86198ZM5.28624 6.04655H5.84126V6.33626H5.28624V6.04655ZM5.28624 5.23763H6.20747V5.52734H5.28624V5.23763ZM7.20845 4.74447H4.95421V12.6676H7.20845V4.74447ZM11.4728 6.2207V13.0241H9.56847V6.2207H9.56033L9.62544 6.08887L10.4116 4.47266L10.4913 4.30827L10.5743 4.47103L11.4125 6.08724L11.4825 6.22233H11.4728V6.2207ZM9.85493 6.03516H11.1814L10.6541 5.01953H10.3497L9.85493 6.03516ZM2.44445 1.96777H16.4793C16.5883 1.96777 16.686 2.01172 16.756 2.08333C16.8276 2.15495 16.8715 2.2526 16.8715 2.36003V3.49772H16.144V2.61068H2.44445V11.0449H2.44282C2.44282 11.1621 2.35818 11.263 2.23937 11.2809C0.100698 11.6113 0.00629663 14.1455 2.17589 14.5085H16.144V13.444H16.8715V14.8438C16.8715 14.9512 16.8276 15.0488 16.756 15.1204L16.7543 15.1221C16.6827 15.1937 16.5851 15.2376 16.4776 15.2376H2.15962C1.57368 15.2376 0.759877 14.7786 0.421336 14.2936C0.0893045 13.8216 -0.0295106 13.2145 0.00466907 12.5081V3.61816C0.00466907 3.3724 0.00466907 3.34635 0.00466907 3.3138C-0.00509655 1.73991 -0.0164897 0.0390625 2.17589 0.0016276C2.18566 0 2.1938 0 2.20356 0C2.33703 0 2.44445 0.107422 2.44445 0.240885V1.96777ZM16.5981 6.99382C17.3484 6.99382 17.9555 7.60254 17.9555 8.35124C17.9555 9.09994 17.3468 9.70866 16.5981 9.70866C15.8478 9.70866 15.2407 9.09994 15.2407 8.35124C15.2407 7.60254 15.8478 6.99382 16.5981 6.99382Z" fill="#CDCFD0"/>
</svg>
