<svg width="139" height="103" viewBox="0 0 139 103" fill="none" xmlns="http://www.w3.org/2000/svg">
<path d="M138.233 90.5151H0V90.5843H138.233V90.5151Z" fill="#EBEBEB"/>
<path d="M124.382 94.9629H115.226V95.032H124.382V94.9629Z" fill="#EBEBEB"/>
<path d="M91.5709 95.7148H89.1685V95.784H91.5709V95.7148Z" fill="#EBEBEB"/>
<path d="M114.949 92.3979H109.644V92.4671H114.949V92.3979Z" fill="#EBEBEB"/>
<path d="M26.444 92.8623H14.5034V92.9314H26.444V92.8623Z" fill="#EBEBEB"/>
<path d="M30.6573 92.8623H28.9072V92.9314H30.6573V92.8623Z" fill="#EBEBEB"/>
<path d="M62.246 94.0288H36.3467V94.0979H62.246V94.0288Z" fill="#EBEBEB"/>
<path d="M65.5221 78.1844H12.1393C11.7211 78.1837 11.3203 78.0171 11.0249 77.7211C10.7294 77.4251 10.5635 77.024 10.5635 76.6058V1.56479C10.5671 1.149 10.7347 0.751427 11.0297 0.45844C11.3248 0.165453 11.7235 0.000712282 12.1393 0H65.5221C65.9407 0 66.3423 0.166318 66.6383 0.462367C66.9344 0.758415 67.1007 1.15994 67.1007 1.57862V76.6058C67.1007 77.0245 66.9344 77.426 66.6383 77.7221C66.3423 78.0181 65.9407 78.1844 65.5221 78.1844ZM12.1393 0.0552933C11.7395 0.0560257 11.3562 0.215385 11.0737 0.498392C10.7912 0.781399 10.6326 1.16493 10.6326 1.56479V76.6058C10.6326 77.0057 10.7912 77.3892 11.0737 77.6722C11.3562 77.9552 11.7395 78.1146 12.1393 78.1153H65.5221C65.9222 78.1146 66.3057 77.9553 66.5886 77.6724C66.8716 77.3895 67.0308 77.006 67.0316 76.6058V1.56479C67.0308 1.16467 66.8716 0.781151 66.5886 0.498223C66.3057 0.215295 65.9222 0.0560241 65.5221 0.0552933H12.1393Z" fill="#EBEBEB"/>
<path d="M125.324 78.1844H71.939C71.5205 78.1837 71.1194 78.0172 70.8235 77.7213C70.5276 77.4254 70.3611 77.0243 70.3604 76.6058V1.56479C70.3647 1.14875 70.5329 0.751178 70.8284 0.458267C71.1239 0.165356 71.5229 0.000704514 71.939 0H125.324C125.74 0.00143886 126.138 0.166501 126.432 0.45941C126.727 0.75232 126.894 1.14948 126.898 1.56479V76.6058C126.898 77.0236 126.732 77.4242 126.437 77.7201C126.142 78.016 125.742 78.183 125.324 78.1844ZM71.939 0.0552933C71.5388 0.0560241 71.1553 0.215295 70.8724 0.498223C70.5895 0.781151 70.4302 1.16467 70.4295 1.56479V76.6058C70.4302 77.006 70.5895 77.3895 70.8724 77.6724C71.1553 77.9553 71.5388 78.1146 71.939 78.1153H125.324C125.725 78.1146 126.108 77.9553 126.391 77.6724C126.674 77.3895 126.833 77.006 126.834 76.6058V1.56479C126.833 1.16467 126.674 0.781151 126.391 0.498223C126.108 0.215295 125.725 0.0560241 125.324 0.0552933H71.939Z" fill="#EBEBEB"/>
<path d="M87.5122 62.8818H120.73C120.729 63.4687 120.503 64.0328 120.097 64.4567C119.691 64.8806 119.137 65.1315 118.551 65.1571C114.982 65.3203 109.488 65.8843 107.749 67.8582C104.501 71.5407 104.816 84.4738 108.706 87.4679C109.923 88.4079 113.478 90.2713 113.478 90.2713H94.7639C94.7639 90.2713 98.0815 88.3692 99.2399 87.4679C103.11 84.4489 103.218 71.5241 99.9559 67.8582C98.2833 65.9782 93.1355 65.37 89.6825 65.1793C89.0955 65.1467 88.5433 64.8904 88.1395 64.463C87.7358 64.0356 87.5113 63.4697 87.5122 62.8818Z" fill="#F5F5F5"/>
<path d="M116.613 65.2788C113.24 65.5553 109.198 66.216 107.75 67.8582C107.276 68.4255 106.903 69.0686 106.644 69.7603H101.073C100.81 69.0703 100.437 68.4278 99.967 67.8582C98.5128 66.2243 94.4377 65.5525 91.1201 65.2788H116.613Z" fill="#E6E6E6"/>
<path d="M101.662 62.8984L102.115 57.7368H95.5659L95.1152 62.8984H101.662Z" fill="#EBEBEB"/>
<path d="M101.662 62.8984L102.115 57.7368H102.466L102.015 62.8984H101.662Z" fill="#E0E0E0"/>
<path d="M101.04 62.3737L101.399 58.2627H96.1875L95.8281 62.3737H101.04Z" fill="#F0F0F0"/>
<path d="M100.641 62.033L100.94 58.6021H96.5885L96.2871 62.033H100.641Z" fill="#FAFAFA"/>
<path d="M103.785 62.882H110.362L109.632 54.541H103.055L103.785 62.882Z" fill="#E6E6E6"/>
<path d="M103.785 62.882H103.473L102.743 54.541H103.055L103.785 62.882Z" fill="#E0E0E0"/>
<path d="M104.382 62.0333H109.619L109.038 55.3926H103.802L104.382 62.0333Z" fill="#F0F0F0"/>
<path d="M104.764 61.4858H109.141L108.654 55.9399H104.28L104.764 61.4858Z" fill="#FAFAFA"/>
<path d="M106.976 58.4336C106.905 58.5046 106.821 58.561 106.728 58.5995C106.636 58.638 106.537 58.6578 106.437 58.6578C106.336 58.6578 106.237 58.638 106.145 58.5995C106.052 58.561 105.968 58.5046 105.897 58.4336C105.755 58.2906 105.676 58.0973 105.676 57.8959C105.676 57.6944 105.755 57.5011 105.897 57.3581C106.041 57.216 106.235 57.1362 106.437 57.1362C106.638 57.1362 106.832 57.216 106.976 57.3581C107.118 57.5011 107.197 57.6944 107.197 57.8959C107.197 58.0973 107.118 58.2906 106.976 58.4336Z" fill="#EBEBEB"/>
<path d="M106.652 59.3686C106.704 59.3163 106.765 59.2748 106.833 59.2465C106.9 59.2182 106.973 59.2036 107.046 59.2036C107.12 59.2036 107.192 59.2182 107.26 59.2465C107.327 59.2748 107.389 59.3163 107.44 59.3686C107.52 59.4456 107.575 59.5449 107.598 59.6535C107.62 59.7622 107.61 59.8751 107.568 59.9777C107.525 60.0803 107.453 60.1678 107.36 60.2288C107.268 60.2898 107.159 60.3214 107.048 60.3196C106.936 60.322 106.827 60.2907 106.734 60.23C106.641 60.1692 106.568 60.0818 106.525 59.979C106.483 59.8763 106.472 59.7631 106.494 59.6542C106.517 59.5453 106.572 59.4457 106.652 59.3686Z" fill="#F0F0F0"/>
<path d="M22.5927 53.3745L53.6094 53.3745L53.6094 19.0707L22.5927 19.0707L22.5927 53.3745Z" fill="#E0E0E0"/>
<path d="M21.6029 53.3745L53.7725 53.3745L53.7725 19.0707L21.6029 19.0707L21.6029 53.3745Z" fill="#F0F0F0"/>
<path d="M22.966 51.7959L52.4648 51.7959L52.4648 20.1627L22.966 20.1627L22.966 51.7959Z" fill="white"/>
<path d="M22.9636 51.7959H23.8179L23.8179 20.1627H22.9636L22.9636 51.7959Z" fill="#E0E0E0"/>
<path d="M23.7266 42.9104V43.7646H52.5398V42.9104H23.7266Z" fill="#E0E0E0"/>
<path d="M22.9631 42.9102L52.9209 42.9102V41.4781L22.9631 41.4781V42.9102Z" fill="#F0F0F0"/>
<path d="M104.612 24.9426C104.612 24.9426 104.888 23.1179 103.558 21.9485C102.229 20.779 102.345 20.0824 102.729 19.9911C103.113 19.8999 103.459 21.0721 104.045 21.3928C104.045 21.3928 104.064 19.734 103.47 19.112C102.876 18.4899 102.563 16.9168 103.13 16.9002C103.697 16.8836 103.752 17.8402 103.871 18.5259C103.99 19.2115 104.617 20.1846 104.617 20.1846C104.617 20.1846 104.739 18.6917 105.123 18.078C105.508 17.4642 104.485 16.0598 104.88 15.446C105.275 14.8323 105.986 15.999 105.917 17.3177C105.848 18.6364 104.982 20.0381 105.187 21.4122C105.187 21.4122 105.574 20.4473 105.919 20.3588C106.265 20.2703 106.619 19.6345 106.851 19.3967C107.083 19.159 107.379 19.9801 106.851 20.7403C106.323 21.5006 104.982 23.5354 105.192 25.1776L104.612 24.9426Z" fill="#E6E6E6"/>
<path d="M103.815 24.1133L103.379 26.8475C103.345 27.0471 103.356 27.2515 103.411 27.4463C103.465 27.6412 103.562 27.8217 103.694 27.9751C103.825 28.1286 103.989 28.2512 104.174 28.3344C104.358 28.4176 104.559 28.4593 104.761 28.4566H105.225C105.428 28.4593 105.628 28.4176 105.813 28.3344C105.997 28.2512 106.161 28.1286 106.293 27.9751C106.424 27.8217 106.521 27.6412 106.575 27.4463C106.63 27.2515 106.641 27.0471 106.608 26.8475L106.163 24.1133H103.815Z" fill="#F5F5F5"/>
<path d="M110.404 27.4478H79.6055V29.0291H110.404V27.4478Z" fill="#E6E6E6"/>
<path d="M82.3809 21.6143H81.0234V27.4477H82.3809V21.6143Z" fill="#F0F0F0"/>
<path d="M88.9419 21.6143H87.5845V27.4477H88.9419V21.6143Z" fill="#F0F0F0"/>
<path d="M96.3914 21.4657L95.0537 21.6963L96.0446 27.4449L97.3823 27.2144L96.3914 21.4657Z" fill="#F0F0F0"/>
<path d="M84.062 22.3828H82.7046V27.4477H84.062V22.3828Z" fill="#F0F0F0"/>
<path d="M87.1807 22.3828H85.8232V27.4477H87.1807V22.3828Z" fill="#F0F0F0"/>
<path d="M95.0542 22.3828H93.6968V27.4477H95.0542V22.3828Z" fill="#F0F0F0"/>
<path d="M90.7231 22.2035L89.3979 22.498L90.4968 27.4423L91.8219 27.1478L90.7231 22.2035Z" fill="#F0F0F0"/>
<path d="M85.234 21.3237H84.5566V27.4474H85.234V21.3237Z" fill="#F0F0F0"/>
<path d="M93.3043 21.3237H92.627V27.4474H93.3043V21.3237Z" fill="#F0F0F0"/>
<path d="M79.6085 40.8423L110.407 40.8423V39.2609L79.6085 39.2609V40.8423Z" fill="#E6E6E6"/>
<path d="M107.631 39.2607H108.988V33.4273H107.631V39.2607Z" fill="#F0F0F0"/>
<path d="M101.07 39.2607H102.428V33.4273H101.07V39.2607Z" fill="#F0F0F0"/>
<path d="M92.6335 39.0248L93.9712 39.2554L94.9621 33.5067L93.6244 33.2761L92.6335 39.0248Z" fill="#F0F0F0"/>
<path d="M105.95 39.2607H107.307V34.1959H105.95V39.2607Z" fill="#F0F0F0"/>
<path d="M102.832 39.2607H104.189V34.1959H102.832V39.2607Z" fill="#F0F0F0"/>
<path d="M94.958 39.2607H96.3154V34.1959H94.958V39.2607Z" fill="#F0F0F0"/>
<path d="M98.1925 38.9599L99.5176 39.2544L100.616 34.3102L99.2913 34.0157L98.1925 38.9599Z" fill="#F0F0F0"/>
<path d="M104.778 39.2607H105.455V33.137H104.778V39.2607Z" fill="#F0F0F0"/>
<path d="M96.7074 39.2607H97.3848V33.137H96.7074V39.2607Z" fill="#F0F0F0"/>
<path d="M82.564 39.208H89.1743V34.6436H82.564V39.208Z" fill="#F5F5F5"/>
<path d="M69.1166 103C98.7212 103 122.721 101.599 122.721 99.8703C122.721 98.1419 98.7212 96.7407 69.1166 96.7407C39.512 96.7407 15.5127 98.1419 15.5127 99.8703C15.5127 101.599 39.512 103 69.1166 103Z" fill="#F5F5F5"/>
<path d="M91.9166 92.9561C91.9166 92.9561 90.5343 89.9702 92.1102 87.0231C93.686 84.076 94.1283 83.3848 93.1331 82.7821C92.1378 82.1794 91.6761 85.1514 91.6761 85.1514C91.1809 83.8145 91.1295 82.3536 91.5296 80.9851C92.2235 78.8536 92.6603 75.3839 91.712 75.0107C90.7638 74.6375 91.5323 79.3401 90.7085 80.9436C90.2892 79.8188 90.0187 78.644 89.904 77.4491C89.7906 75.7378 89.9675 73.0035 89.2183 72.3041C88.4691 71.6046 87.9908 72.0857 88.7262 75.865C89.1682 78.1211 89.4124 80.4116 89.4561 82.7103C89.4561 82.7103 87.8332 77.756 86.7412 77.6122C85.6491 77.4685 85.6519 79.072 86.5864 80.4626C87.5208 81.8532 89.3206 84.3469 89.6137 85.6297C89.6137 85.6297 87.8305 81.903 86.227 83.0448C84.6235 84.1866 87.6231 86.4398 88.9612 87.2526C90.2993 88.0654 91.2282 93.1662 91.2282 93.1662L91.9166 92.9561Z" fill="#1D9CD3"/>
<path opacity="0.2" d="M91.9166 92.9561C91.9166 92.9561 90.5343 89.9702 92.1102 87.0231C93.686 84.076 94.1283 83.3848 93.1331 82.7821C92.1378 82.1794 91.6761 85.1514 91.6761 85.1514C91.1809 83.8145 91.1295 82.3536 91.5296 80.9851C92.2235 78.8536 92.6603 75.3839 91.712 75.0107C90.7638 74.6375 91.5323 79.3401 90.7085 80.9436C90.2892 79.8188 90.0187 78.644 89.904 77.4491C89.7906 75.7378 89.9675 73.0035 89.2183 72.3041C88.4691 71.6046 87.9908 72.0857 88.7262 75.865C89.1682 78.1211 89.4124 80.4116 89.4561 82.7103C89.4561 82.7103 87.8332 77.756 86.7412 77.6122C85.6491 77.4685 85.6519 79.072 86.5864 80.4626C87.5208 81.8532 89.3206 84.3469 89.6137 85.6297C89.6137 85.6297 87.8305 81.903 86.227 83.0448C84.6235 84.1866 87.6231 86.4398 88.9612 87.2526C90.2993 88.0654 91.2282 93.1662 91.2282 93.1662L91.9166 92.9561Z" fill="black"/>
<path d="M90.8353 94.1811C90.8353 94.1811 92.1679 91.1732 90.5589 88.2537C88.9498 85.3342 88.4964 84.6431 89.4862 84.0265C90.4759 83.41 90.968 86.3599 90.968 86.3599C91.4475 85.0167 91.4814 83.5548 91.0648 82.1908C90.346 80.0731 89.8677 76.609 90.8132 76.2219C91.7587 75.8349 91.0454 80.5486 91.8859 82.1383C92.2927 81.0073 92.5493 79.8277 92.6489 78.6299C92.7429 76.9186 92.5328 74.1871 93.2738 73.4766C94.0147 72.7661 94.4985 73.2416 93.8073 77.0292C93.3918 79.2913 93.1753 81.5856 93.1604 83.8855C93.1604 83.8855 94.7252 78.9092 95.8145 78.7488C96.9037 78.5885 96.9203 80.192 96.0025 81.5964C95.0846 83.0009 93.318 85.5222 93.036 86.8078C93.036 86.8078 94.775 83.0534 96.3923 84.1731C98.0096 85.2927 95.0376 87.5874 93.7106 88.4223C92.3835 89.2573 91.5154 94.3691 91.5154 94.3691L90.8353 94.1811Z" fill="#1D9CD3"/>
<path d="M96.9841 92.0381H85.9697L86.8627 99.9201H96.0939L96.9841 92.0381Z" fill="#263238"/>
<path opacity="0.2" d="M118.618 13.6572H60.4054C60.0267 13.6572 59.7197 13.9642 59.7197 14.3429V66.0474C59.7197 66.4261 60.0267 66.7331 60.4054 66.7331H118.618C118.997 66.7331 119.304 66.4261 119.304 66.0474V14.3429C119.304 13.9642 118.997 13.6572 118.618 13.6572Z" fill="black"/>
<path d="M116.364 12.6758H58.1515C57.7728 12.6758 57.4658 12.9828 57.4658 13.3614V65.066C57.4658 65.4447 57.7728 65.7516 58.1515 65.7516H116.364C116.743 65.7516 117.05 65.4447 117.05 65.066V13.3614C117.05 12.9828 116.743 12.6758 116.364 12.6758Z" fill="#1D9CD3"/>
<path opacity="0.6" d="M57.4662 17.4175V65.0691C57.4521 65.2326 57.5017 65.3953 57.6048 65.5231C57.7078 65.6509 57.8563 65.7339 58.0192 65.7547H116.481C116.646 65.7379 116.799 65.6566 116.906 65.5284C117.012 65.4001 117.064 65.2352 117.05 65.0691V17.4175H57.4662Z" fill="white"/>
<path d="M116.343 20.2124H58.1714V62.3098H116.343V20.2124Z" fill="white"/>
<path opacity="0.6" d="M115.104 15.9548C115.586 15.9548 115.977 15.4832 115.977 14.9015C115.977 14.3197 115.586 13.8481 115.104 13.8481C114.621 13.8481 114.23 14.3197 114.23 14.9015C114.23 15.4832 114.621 15.9548 115.104 15.9548Z" fill="white"/>
<path opacity="0.6" d="M112.242 15.9548C112.725 15.9548 113.116 15.4832 113.116 14.9015C113.116 14.3197 112.725 13.8481 112.242 13.8481C111.76 13.8481 111.369 14.3197 111.369 14.9015C111.369 15.4832 111.76 15.9548 112.242 15.9548Z" fill="white"/>
<path opacity="0.6" d="M110.252 14.9015C110.252 15.4821 109.862 15.952 109.378 15.952C108.894 15.952 108.507 15.4821 108.507 14.9015C108.507 14.3209 108.897 13.8481 109.378 13.8481C109.859 13.8481 110.252 14.3181 110.252 14.9015Z" fill="white"/>
<path d="M70.5652 25.1279V35.9847L67.7729 39.3521H61.5884V25.1279H70.5652Z" fill="#1D9CD3"/>
<path opacity="0.7" d="M70.5652 25.1279V35.9847L67.7729 39.3521H61.5884V25.1279H70.5652Z" fill="white"/>
<path opacity="0.3" d="M70.5653 35.9844L67.7729 39.3517V35.9844H70.5653Z" fill="#1D9CD3"/>
<path opacity="0.3" d="M69.1743 27.1797H62.9814V27.5861H69.1743V27.1797Z" fill="#1D9CD3"/>
<path opacity="0.3" d="M69.1743 28.7222H62.9814V29.1286H69.1743V28.7222Z" fill="#1D9CD3"/>
<path opacity="0.3" d="M69.1743 30.2676H62.9814V30.6768H69.1743V30.2676Z" fill="#1D9CD3"/>
<path opacity="0.3" d="M69.1743 31.813H62.9814V32.2194H69.1743V31.813Z" fill="#1D9CD3"/>
<path opacity="0.3" d="M67.5735 33.3579H62.9814V33.7671H67.5735V33.3579Z" fill="#1D9CD3"/>
<path d="M84.803 25.1279V35.9847L82.0107 39.3521H75.8262V25.1279H84.803Z" fill="#1D9CD3"/>
<path opacity="0.7" d="M84.803 25.1279V35.9847L82.0107 39.3521H75.8262V25.1279H84.803Z" fill="white"/>
<path opacity="0.3" d="M84.803 35.9844L82.0107 39.3517V35.9844H84.803Z" fill="#1D9CD3"/>
<path opacity="0.3" d="M83.4096 27.1797H77.2168V27.5861H83.4096V27.1797Z" fill="#1D9CD3"/>
<path opacity="0.3" d="M83.4096 28.7222H77.2168V29.1286H83.4096V28.7222Z" fill="#1D9CD3"/>
<path opacity="0.3" d="M83.4096 30.2676H77.2168V30.6768H83.4096V30.2676Z" fill="#1D9CD3"/>
<path opacity="0.3" d="M83.4096 31.813H77.2168V32.2194H83.4096V31.813Z" fill="#1D9CD3"/>
<path opacity="0.3" d="M81.8089 33.3579H77.2168V33.7671H81.8089V33.3579Z" fill="#1D9CD3"/>
<path d="M99.0408 25.1279V35.9847L96.2485 39.3521H90.064V25.1279H99.0408Z" fill="#1D9CD3"/>
<path opacity="0.7" d="M99.0408 25.1279V35.9847L96.2485 39.3521H90.064V25.1279H99.0408Z" fill="white"/>
<path opacity="0.3" d="M99.0408 35.9844L96.2485 39.3517V35.9844H99.0408Z" fill="#1D9CD3"/>
<path opacity="0.3" d="M97.6479 27.1797H91.4551V27.5861H97.6479V27.1797Z" fill="#1D9CD3"/>
<path opacity="0.3" d="M97.6479 28.7222H91.4551V29.1286H97.6479V28.7222Z" fill="#1D9CD3"/>
<path opacity="0.3" d="M97.6479 30.2676H91.4551V30.6768H97.6479V30.2676Z" fill="#1D9CD3"/>
<path opacity="0.3" d="M97.6479 31.813H91.4551V32.2194H97.6479V31.813Z" fill="#1D9CD3"/>
<path opacity="0.3" d="M96.0472 33.3579H91.4551V33.7671H96.0472V33.3579Z" fill="#1D9CD3"/>
<path d="M113.279 25.1279V35.9847L110.484 39.3521H104.302V25.1279H113.279Z" fill="#1D9CD3"/>
<path opacity="0.7" d="M113.279 25.1279V35.9847L110.484 39.3521H104.302V25.1279H113.279Z" fill="white"/>
<path opacity="0.3" d="M113.279 35.9844L110.484 39.3517V35.9844H113.279Z" fill="#1D9CD3"/>
<path opacity="0.3" d="M111.886 27.1797H105.693V27.5861H111.886V27.1797Z" fill="#1D9CD3"/>
<path opacity="0.3" d="M111.886 28.7222H105.693V29.1286H111.886V28.7222Z" fill="#1D9CD3"/>
<path opacity="0.3" d="M111.886 30.2676H105.693V30.6768H111.886V30.2676Z" fill="#1D9CD3"/>
<path opacity="0.3" d="M111.886 31.813H105.693V32.2194H111.886V31.813Z" fill="#1D9CD3"/>
<path opacity="0.3" d="M110.285 33.3579H105.693V33.7671H110.285V33.3579Z" fill="#1D9CD3"/>
<path d="M70.5652 43.9277V54.7845L67.7729 58.1519H61.5884V43.9277H70.5652Z" fill="#1D9CD3"/>
<path opacity="0.7" d="M70.5652 43.9277V54.7845L67.7729 58.1519H61.5884V43.9277H70.5652Z" fill="white"/>
<path opacity="0.3" d="M70.5653 54.7847L67.7729 58.152V54.7847H70.5653Z" fill="#1D9CD3"/>
<path opacity="0.3" d="M69.1743 45.979H62.9814V46.3854H69.1743V45.979Z" fill="#1D9CD3"/>
<path opacity="0.3" d="M69.1743 47.5215H62.9814V47.9279H69.1743V47.5215Z" fill="#1D9CD3"/>
<path opacity="0.3" d="M69.1743 49.0674H62.9814V49.4766H69.1743V49.0674Z" fill="#1D9CD3"/>
<path opacity="0.3" d="M69.1743 50.6123H62.9814V51.0215H69.1743V50.6123Z" fill="#1D9CD3"/>
<path opacity="0.3" d="M67.5735 52.1582H62.9814V52.5646H67.5735V52.1582Z" fill="#1D9CD3"/>
<path d="M84.803 43.9277V54.7845L82.0107 58.1519H75.8262V43.9277H84.803Z" fill="#1D9CD3"/>
<path opacity="0.7" d="M84.803 43.9277V54.7845L82.0107 58.1519H75.8262V43.9277H84.803Z" fill="white"/>
<path opacity="0.3" d="M84.803 54.7847L82.0107 58.152V54.7847H84.803Z" fill="#1D9CD3"/>
<path opacity="0.3" d="M83.4096 45.979H77.2168V46.3854H83.4096V45.979Z" fill="#1D9CD3"/>
<path opacity="0.3" d="M83.4096 47.5215H77.2168V47.9279H83.4096V47.5215Z" fill="#1D9CD3"/>
<path opacity="0.3" d="M83.4096 49.0674H77.2168V49.4766H83.4096V49.0674Z" fill="#1D9CD3"/>
<path opacity="0.3" d="M83.4096 50.6123H77.2168V51.0215H83.4096V50.6123Z" fill="#1D9CD3"/>
<path opacity="0.3" d="M81.8089 52.1582H77.2168V52.5646H81.8089V52.1582Z" fill="#1D9CD3"/>
<path d="M99.0408 43.9277V54.7845L96.2485 58.1519H90.064V43.9277H99.0408Z" fill="#1D9CD3"/>
<path opacity="0.7" d="M99.0408 43.9277V54.7845L96.2485 58.1519H90.064V43.9277H99.0408Z" fill="white"/>
<path opacity="0.3" d="M99.0408 54.7847L96.2485 58.152V54.7847H99.0408Z" fill="#1D9CD3"/>
<path opacity="0.3" d="M97.6479 45.979H91.4551V46.3854H97.6479V45.979Z" fill="#1D9CD3"/>
<path opacity="0.3" d="M97.6479 47.5215H91.4551V47.9279H97.6479V47.5215Z" fill="#1D9CD3"/>
<path opacity="0.3" d="M97.6479 49.0674H91.4551V49.4766H97.6479V49.0674Z" fill="#1D9CD3"/>
<path opacity="0.3" d="M97.6479 50.6123H91.4551V51.0215H97.6479V50.6123Z" fill="#1D9CD3"/>
<path opacity="0.3" d="M96.0472 52.1582H91.4551V52.5646H96.0472V52.1582Z" fill="#1D9CD3"/>
<path d="M113.279 43.9277V54.7845L110.484 58.1519H104.302V43.9277H113.279Z" fill="#1D9CD3"/>
<path opacity="0.7" d="M113.279 43.9277V54.7845L110.484 58.1519H104.302V43.9277H113.279Z" fill="white"/>
<path opacity="0.3" d="M113.279 54.7847L110.484 58.152V54.7847H113.279Z" fill="#1D9CD3"/>
<path opacity="0.3" d="M111.886 45.979H105.693V46.3854H111.886V45.979Z" fill="#1D9CD3"/>
<path opacity="0.3" d="M111.886 47.5215H105.693V47.9279H111.886V47.5215Z" fill="#1D9CD3"/>
<path opacity="0.3" d="M111.886 49.0674H105.693V49.4766H111.886V49.0674Z" fill="#1D9CD3"/>
<path opacity="0.3" d="M111.886 50.6123H105.693V51.0215H111.886V50.6123Z" fill="#1D9CD3"/>
<path opacity="0.3" d="M110.285 52.1582H105.693V52.5646H110.285V52.1582Z" fill="#1D9CD3"/>
<path opacity="0.1" d="M91.2223 34.9312H76.8931C76.2289 34.9312 75.6904 35.4696 75.6904 36.1338V46.8717C75.6904 47.5359 76.2289 48.0743 76.8931 48.0743H91.2223C91.8865 48.0743 92.4249 47.5359 92.4249 46.8717V36.1338C92.4249 35.4696 91.8865 34.9312 91.2223 34.9312Z" fill="black"/>
<g opacity="0.1">
<path d="M90.197 34.3205H88.5382V32.5262C88.5382 31.3926 88.0879 30.3055 87.2863 29.5039C86.4847 28.7024 85.3976 28.2521 84.264 28.2521C83.1304 28.2521 82.0433 28.7024 81.2417 29.5039C80.4402 30.3055 79.9898 31.3926 79.9898 32.5262V34.3205H78.3311V32.5262C78.3311 30.9527 78.9561 29.4436 80.0688 28.331C81.1814 27.2183 82.6905 26.5933 84.264 26.5933C85.8375 26.5933 87.3466 27.2183 88.4592 28.331C89.5719 29.4436 90.197 30.9527 90.197 32.5262V34.3205Z" fill="black"/>
</g>
<path d="M84.3106 34.3784H69.9814C69.3172 34.3784 68.7788 34.9168 68.7788 35.581V46.319C68.7788 46.9832 69.3172 47.5216 69.9814 47.5216H84.3106C84.9748 47.5216 85.5133 46.9832 85.5133 46.319V35.581C85.5133 34.9168 84.9748 34.3784 84.3106 34.3784Z" fill="#263238"/>
<path opacity="0.2" d="M81.2833 34.3784H69.9814C69.3172 34.3784 68.7788 34.9168 68.7788 35.581V46.319C68.7788 46.9832 69.3172 47.5216 69.9814 47.5216H81.2833C81.9475 47.5216 82.486 46.9832 82.486 46.319V35.581C82.486 34.9168 81.9475 34.3784 81.2833 34.3784Z" fill="white"/>
<path d="M76.4732 39.3107C76.4732 38.4039 75.9203 37.6685 75.2401 37.6685C74.56 37.6685 74.0099 38.4039 74.0099 39.3107C73.9935 39.6095 74.0561 39.9075 74.1916 40.1744C74.327 40.4414 74.5304 40.6679 74.7812 40.8312L74.5518 44.2594H75.9341L75.7074 40.8312C75.9568 40.6668 76.1588 40.4399 76.2932 40.1731C76.4275 39.9063 76.4896 39.6089 76.4732 39.3107Z" fill="#263238"/>
<path d="M83.2853 33.7673H81.6265V31.973C81.6265 30.8394 81.1762 29.7523 80.3747 28.9507C79.5731 28.1491 78.486 27.6988 77.3524 27.6988C76.2188 27.6988 75.1317 28.1491 74.3301 28.9507C73.5285 29.7523 73.0782 30.8394 73.0782 31.973V33.7673H71.4194V31.973C71.4194 30.3995 72.0445 28.8904 73.1572 27.7778C74.2698 26.6651 75.7789 26.04 77.3524 26.04C78.9259 26.04 80.435 26.6651 81.5476 27.7778C82.6603 28.8904 83.2853 30.3995 83.2853 31.973V33.7673Z" fill="#263238"/>
<g opacity="0.4">
<path d="M83.2853 33.7673H81.6265V31.973C81.6265 30.8394 81.1762 29.7523 80.3747 28.9507C79.5731 28.1491 78.486 27.6988 77.3524 27.6988C76.2188 27.6988 75.1317 28.1491 74.3301 28.9507C73.5285 29.7523 73.0782 30.8394 73.0782 31.973V33.7673H71.4194V31.973C71.4194 30.3995 72.0445 28.8904 73.1572 27.7778C74.2698 26.6651 75.7789 26.04 77.3524 26.04C78.9259 26.04 80.435 26.6651 81.5476 27.7778C82.6603 28.8904 83.2853 30.3995 83.2853 31.973V33.7673Z" fill="white"/>
</g>
<path opacity="0.2" d="M83.2856 31.9731V33.7674H82.1604V31.7685C82.1604 31.0567 82.0201 30.3519 81.7476 29.6942C81.4751 29.0366 81.0757 28.4392 80.5723 27.9359C80.0688 27.4327 79.4711 27.0336 78.8134 26.7615C78.1556 26.4893 77.4507 26.3495 76.7389 26.3498C75.651 26.3464 74.5888 26.6796 73.6978 27.3036C74.5728 26.6174 75.6233 26.1912 76.7292 26.0737C77.835 25.9562 78.9516 26.1522 79.9514 26.6392C80.9511 27.1263 81.7937 27.8847 82.3828 28.8279C82.9719 29.7711 83.2838 30.8611 83.2828 31.9731H83.2856Z" fill="white"/>
<path d="M59.8436 63.7612H53.1421V63.504H54.6544C54.7561 63.5031 54.8543 63.4666 54.932 63.401C55.0097 63.3354 55.0621 63.2447 55.0801 63.1446L55.7575 59.1138L55.8902 58.3203H58.1848L60.239 63.164C60.2669 63.2293 60.2782 63.3005 60.2718 63.3712C60.2654 63.4419 60.2415 63.51 60.2023 63.5692C60.1631 63.6284 60.1098 63.6769 60.0472 63.7105C59.9846 63.744 59.9146 63.7614 59.8436 63.7612Z" fill="#1D9CD3"/>
<path opacity="0.4" d="M59.8436 63.7612H53.1421V63.504H54.6544C54.7561 63.5031 54.8543 63.4666 54.932 63.401C55.0097 63.3354 55.0621 63.2447 55.0801 63.1446L55.7575 59.1138L55.8902 58.3203H58.1848L60.239 63.164C60.2669 63.2293 60.2782 63.3005 60.2718 63.3712C60.2654 63.4419 60.2415 63.51 60.2023 63.5692C60.1631 63.6284 60.1098 63.6769 60.0472 63.7105C59.9846 63.744 59.9146 63.7614 59.8436 63.7612Z" fill="white"/>
<path opacity="0.2" d="M59.8523 63.504H54.6548C54.7565 63.5031 54.8547 63.4666 54.9324 63.401C55.0101 63.3354 55.0625 63.2447 55.0805 63.1446L55.7579 59.1138H58.1631L59.9933 63.2912C60.0035 63.3144 60.0077 63.3399 60.0055 63.3652C60.0033 63.3905 59.9948 63.4148 59.9807 63.436C59.9667 63.4571 59.9476 63.4744 59.9252 63.4863C59.9028 63.4982 59.8777 63.5043 59.8523 63.504Z" fill="black"/>
<path d="M63.4461 59.8049H50.0403C50.0098 59.8062 49.9794 59.8004 49.9516 59.7879C49.9237 59.7755 49.8991 59.7567 49.8798 59.7331C49.8605 59.7094 49.8469 59.6816 49.8402 59.6519C49.8335 59.6221 49.8339 59.5912 49.8412 59.5616L51.7488 49.4872C51.7628 49.4224 51.7972 49.3637 51.847 49.32C51.8967 49.2762 51.9592 49.2495 52.0253 49.2439H65.4283C65.4588 49.2424 65.4891 49.2481 65.5169 49.2606C65.5447 49.2731 65.5691 49.292 65.5883 49.3157C65.6074 49.3394 65.6207 49.3673 65.627 49.3971C65.6333 49.4269 65.6325 49.4577 65.6246 49.4872L63.7225 59.5588C63.7091 59.6241 63.6749 59.6833 63.6251 59.7277C63.5753 59.772 63.5125 59.7991 63.4461 59.8049Z" fill="#1D9CD3"/>
<path opacity="0.4" d="M63.4461 59.8049H50.0403C50.0098 59.8062 49.9794 59.8004 49.9516 59.7879C49.9237 59.7755 49.8991 59.7567 49.8798 59.7331C49.8605 59.7094 49.8469 59.6816 49.8402 59.6519C49.8335 59.6221 49.8339 59.5912 49.8412 59.5616L51.7488 49.4872C51.7628 49.4224 51.7972 49.3637 51.847 49.32C51.8967 49.2762 51.9592 49.2495 52.0253 49.2439H65.4283C65.4588 49.2424 65.4891 49.2481 65.5169 49.2606C65.5447 49.2731 65.5691 49.292 65.5883 49.3157C65.6074 49.3394 65.6207 49.3673 65.627 49.3971C65.6333 49.4269 65.6325 49.4577 65.6246 49.4872L63.7225 59.5588C63.7091 59.6241 63.6749 59.6833 63.6251 59.7277C63.5753 59.772 63.5125 59.7991 63.4461 59.8049Z" fill="white"/>
<path d="M63.1697 59.8049H49.7639C49.7334 59.8062 49.703 59.8004 49.6752 59.7879C49.6473 59.7755 49.6228 59.7567 49.6035 59.7331C49.5841 59.7094 49.5706 59.6816 49.5639 59.6519C49.5572 59.6221 49.5575 59.5912 49.5648 59.5616L51.4724 49.4872C51.4864 49.4224 51.5208 49.3637 51.5706 49.32C51.6204 49.2762 51.6829 49.2495 51.7489 49.2439H65.152C65.1824 49.2424 65.2127 49.2481 65.2405 49.2606C65.2683 49.2731 65.2928 49.292 65.3119 49.3157C65.331 49.3394 65.3443 49.3673 65.3506 49.3971C65.3569 49.4269 65.3561 49.4577 65.3483 49.4872L63.4462 59.5588C63.4327 59.6241 63.3986 59.6833 63.3487 59.7277C63.2989 59.772 63.2361 59.7991 63.1697 59.8049Z" fill="#263238"/>
<path d="M62.9922 59.1854H50.1753L51.9391 49.8657H64.7533L62.9922 59.1854Z" fill="#1D9CD3"/>
<path d="M40.6538 63.7613V63.4461L45.8127 62.4038H55.9064C56.0861 62.4038 56.2583 62.4752 56.3854 62.6022C56.5124 62.7292 56.5837 62.9015 56.5837 63.0812C56.5838 63.261 56.5125 63.4336 56.3855 63.5611C56.2586 63.6885 56.0863 63.7605 55.9064 63.7613H40.6538Z" fill="#1D9CD3"/>
<path opacity="0.4" d="M56.5837 63.0839C56.5841 63.263 56.5136 63.435 56.3875 63.5622C56.2595 63.6892 56.0867 63.7607 55.9064 63.7613H40.6538V63.4488L45.8154 62.4038H55.9064C55.9956 62.4038 56.0839 62.4214 56.1663 62.4556C56.2486 62.4898 56.3234 62.54 56.3863 62.6032C56.4493 62.6664 56.4991 62.7414 56.533 62.8239C56.5669 62.9064 56.5841 62.9947 56.5837 63.0839Z" fill="white"/>
<path opacity="0.4" d="M56.5844 63.0839C56.5848 63.263 56.5142 63.435 56.3881 63.5622C56.2602 63.6892 56.0874 63.7607 55.9071 63.7613H49.7778V63.4488L54.9394 62.4038H55.9071C55.9963 62.4038 56.0846 62.4214 56.1669 62.4556C56.2493 62.4898 56.3241 62.54 56.387 62.6032C56.4499 62.6664 56.4998 62.7414 56.5337 62.8239C56.5675 62.9064 56.5848 62.9947 56.5844 63.0839Z" fill="white"/>
<path d="M60.272 99.92H61.6543L64.1342 65.3784H62.3012L60.272 99.92Z" fill="#263238"/>
<path opacity="0.1" d="M60.272 99.9199H61.6543L64.0126 67.0924L64.1342 65.4336H62.3012L62.2045 67.0924L60.272 99.9199Z" fill="white"/>
<path opacity="0.2" d="M62.2046 67.0095H64.0127L64.1343 65.4336H62.3014L62.2046 67.0095Z" fill="black"/>
<path d="M50.1398 99.92H51.5194L51.7461 65.3784H49.9131L50.1398 99.92Z" fill="#263238"/>
<path opacity="0.1" d="M49.9131 65.4336L49.949 71.0071L50.137 99.9199H51.5194L51.7073 71.0071L51.7433 65.4336H49.9131Z" fill="white"/>
<path opacity="0.2" d="M49.9131 65.4336L49.949 71.068H51.7073L51.7433 65.4336H49.9131Z" fill="black"/>
<path d="M35.479 99.92H36.8586L39.3412 65.3784H37.5083L35.479 99.92Z" fill="#263238"/>
<path opacity="0.1" d="M35.4761 99.9199H36.8584L39.2194 67.0924L39.3411 65.4336H37.5081L37.4086 67.0924L35.4761 99.9199Z" fill="white"/>
<path opacity="0.2" d="M37.4082 67.0095H39.2191L39.3407 65.4336H37.5077L37.4082 67.0095Z" fill="black"/>
<path d="M76.0693 99.92H77.4488L75.4196 65.3784H73.5894L76.0693 99.92Z" fill="#263238"/>
<path opacity="0.1" d="M73.5894 65.4336L73.711 67.0924L76.0693 99.9199H77.4488L75.5191 67.0924L75.4196 65.4336H73.5894Z" fill="white"/>
<path opacity="0.2" d="M75.4196 65.4336H73.5894L73.711 67.0095H75.5191L75.4196 65.4336Z" fill="black"/>
<path d="M76.2739 66.2412H36.6536C36.5752 66.2412 36.4976 66.2258 36.4251 66.1958C36.3527 66.1657 36.2868 66.1218 36.2314 66.0663C36.1759 66.0109 36.132 65.945 36.1019 65.8726C36.0719 65.8001 36.0565 65.7225 36.0565 65.644V64.5105H76.8711V65.644C76.8711 65.7225 76.8556 65.8001 76.8256 65.8726C76.7956 65.945 76.7516 66.0109 76.6962 66.0663C76.6407 66.1218 76.5749 66.1657 76.5025 66.1958C76.43 66.2258 76.3523 66.2412 76.2739 66.2412Z" fill="#1D9CD3"/>
<path opacity="0.4" d="M76.2739 66.2412H36.6536C36.5752 66.2412 36.4976 66.2258 36.4251 66.1958C36.3527 66.1657 36.2868 66.1218 36.2314 66.0663C36.1759 66.0109 36.132 65.945 36.1019 65.8726C36.0719 65.8001 36.0565 65.7225 36.0565 65.644V64.5105H76.8711V65.644C76.8711 65.7225 76.8556 65.8001 76.8256 65.8726C76.7956 65.945 76.7516 66.0109 76.6962 66.0663C76.6407 66.1218 76.5749 66.1657 76.5025 66.1958C76.43 66.2258 76.3523 66.2412 76.2739 66.2412Z" fill="white"/>
<path opacity="0.2" d="M36.0537 65.3755H76.8711V64.5101H36.0537V65.3755Z" fill="black"/>
<path d="M35.1995 64.7368H77.7282C77.8572 64.7368 77.981 64.6856 78.0722 64.5943C78.1635 64.5031 78.2147 64.3793 78.2147 64.2502C78.2147 64.1212 78.1635 63.9974 78.0722 63.9062C77.981 63.8149 77.8572 63.7637 77.7282 63.7637H35.1995C35.0704 63.7637 34.9467 63.8149 34.8554 63.9062C34.7642 63.9974 34.7129 64.1212 34.7129 64.2502C34.7129 64.3793 34.7642 64.5031 34.8554 64.5943C34.9467 64.6856 35.0704 64.7368 35.1995 64.7368Z" fill="#1D9CD3"/>
<path opacity="0.4" d="M35.1995 64.7368H77.7282C77.8572 64.7368 77.981 64.6856 78.0722 64.5943C78.1635 64.5031 78.2147 64.3793 78.2147 64.2502C78.2147 64.1212 78.1635 63.9974 78.0722 63.9062C77.981 63.8149 77.8572 63.7637 77.7282 63.7637H35.1995C35.0704 63.7637 34.9467 63.8149 34.8554 63.9062C34.7642 63.9974 34.7129 64.1212 34.7129 64.2502C34.7129 64.3793 34.7642 64.5031 34.8554 64.5943C34.9467 64.6856 35.0704 64.7368 35.1995 64.7368Z" fill="white"/>
<path opacity="0.3" d="M52.6502 55.0882C52.5895 55.0876 52.5297 55.0738 52.4749 55.0476C52.4201 55.0214 52.3718 54.9834 52.3333 54.9365C52.2948 54.8896 52.2671 54.8348 52.2521 54.7759C52.2371 54.7171 52.2352 54.6557 52.2466 54.5961L52.418 53.7142C52.4421 53.5939 52.507 53.4856 52.6017 53.4075C52.6963 53.3295 52.815 53.2864 52.9377 53.2856H60.1258C60.1868 53.2855 60.2471 53.2991 60.3021 53.3254C60.3572 53.3517 60.4056 53.3901 60.4438 53.4377C60.4831 53.4841 60.5112 53.5388 60.5261 53.5978C60.5409 53.6567 60.5421 53.7183 60.5295 53.7778L60.3581 54.6597C60.335 54.78 60.2708 54.8885 60.1764 54.9667C60.0821 55.0449 59.9636 55.0878 59.8411 55.0882H52.6502Z" fill="white"/>
<path d="M59.8412 54.9504H52.6531C52.6122 54.9511 52.5716 54.9427 52.5344 54.9258C52.4971 54.9089 52.4641 54.884 52.4376 54.8528C52.4112 54.8215 52.392 54.7849 52.3814 54.7453C52.3709 54.7058 52.3692 54.6644 52.3766 54.6242L52.5508 53.7395C52.5676 53.6507 52.6149 53.5706 52.6846 53.513C52.7543 53.4554 52.8419 53.4241 52.9323 53.4244H60.1204C60.1613 53.4237 60.2018 53.4321 60.2391 53.449C60.2763 53.4659 60.3094 53.4908 60.3358 53.522C60.3623 53.5532 60.3815 53.5899 60.392 53.6295C60.4026 53.669 60.4042 53.7103 60.3969 53.7506L60.2254 54.6353C60.2081 54.7243 60.1602 54.8045 60.09 54.862C60.0199 54.9196 59.9319 54.9508 59.8412 54.9504Z" fill="white"/>
<path d="M53.8683 54.3925C54.0092 54.191 53.9936 53.9369 53.8334 53.8249C53.6733 53.7129 53.4292 53.7854 53.2883 53.9868C53.1474 54.1883 53.163 54.4424 53.3232 54.5544C53.4833 54.6664 53.7274 54.5939 53.8683 54.3925Z" fill="#263238"/>
<path d="M55.0803 54.1875C55.0605 54.2979 55.0048 54.3988 54.9218 54.4743C54.8388 54.5498 54.7332 54.5957 54.6214 54.6049C54.5718 54.6034 54.5233 54.5904 54.4796 54.567C54.4359 54.5435 54.3982 54.5103 54.3696 54.4698C54.3409 54.4294 54.322 54.3828 54.3144 54.3338C54.3067 54.2848 54.3106 54.2347 54.3255 54.1875C54.3457 54.0772 54.4016 53.9766 54.4845 53.9012C54.5674 53.8258 54.6728 53.7797 54.7845 53.77C54.8342 53.771 54.8831 53.7836 54.9271 53.8069C54.9711 53.8302 55.009 53.8635 55.0378 53.9041C55.0665 53.9447 55.0854 53.9915 55.0928 54.0407C55.1002 54.0899 55.0959 54.1402 55.0803 54.1875Z" fill="#263238"/>
<path d="M56.2056 54.1875C56.1854 54.2977 56.1296 54.3983 56.0466 54.4737C55.9637 54.5492 55.8583 54.5953 55.7467 54.6049C55.6969 54.6038 55.648 54.5911 55.604 54.5679C55.5599 54.5446 55.5219 54.5114 55.493 54.4709C55.464 54.4304 55.4448 54.3837 55.4371 54.3345C55.4293 54.2853 55.433 54.235 55.4481 54.1875C55.4688 54.077 55.5252 53.9764 55.6086 53.901C55.692 53.8256 55.7978 53.7796 55.9098 53.77C55.9593 53.7715 56.0079 53.7845 56.0515 53.808C56.0952 53.8314 56.1329 53.8647 56.1616 53.9051C56.1902 53.9456 56.2091 53.9921 56.2168 54.0411C56.2244 54.0901 56.2206 54.1402 56.2056 54.1875Z" fill="#263238"/>
<path d="M57.2418 54.391C57.3827 54.1896 57.3671 53.9354 57.2069 53.8234C57.0468 53.7114 56.8027 53.7839 56.6619 53.9854C56.521 54.1868 56.5366 54.4409 56.6967 54.5529C56.8569 54.6649 57.1009 54.5924 57.2418 54.391Z" fill="#263238"/>
<path d="M58.4532 54.1875C58.4324 54.298 58.376 54.3986 58.2927 54.474C58.2093 54.5494 58.1035 54.5954 57.9915 54.6049C57.9419 54.6034 57.8934 54.5904 57.8497 54.567C57.806 54.5435 57.7684 54.5103 57.7397 54.4698C57.711 54.4294 57.6921 54.3828 57.6845 54.3338C57.6769 54.2848 57.6807 54.2347 57.6957 54.1875C57.7163 54.0774 57.7722 53.9771 57.8551 53.9017C57.9379 53.8264 58.0431 53.7801 58.1546 53.77C58.2044 53.7711 58.2532 53.7838 58.2973 53.8071C58.3413 53.8304 58.3793 53.8636 58.4083 53.9041C58.4373 53.9446 58.4564 53.9913 58.4642 54.0405C58.472 54.0897 58.4682 54.14 58.4532 54.1875Z" fill="#263238"/>
<path d="M59.4884 54.3954C59.6293 54.1939 59.6137 53.9398 59.4535 53.8278C59.2934 53.7158 59.0493 53.7883 58.9084 53.9897C58.7675 54.1912 58.7832 54.4453 58.9433 54.5573C59.1035 54.6693 59.3475 54.5968 59.4884 54.3954Z" fill="#263238"/>
<path opacity="0.3" d="M60.8448 55.0885C60.7983 55.0891 60.7523 55.0792 60.7102 55.0596C60.6681 55.04 60.6309 55.0111 60.6015 54.9752C60.57 54.9373 60.5479 54.8925 60.5368 54.8445C60.5258 54.7965 60.5262 54.7466 60.5379 54.6987L60.7563 53.5929C60.7755 53.5023 60.8248 53.4208 60.896 53.3616C60.9672 53.3024 61.0563 53.269 61.1489 53.2666H62.2547C62.3012 53.2661 62.3472 53.2759 62.3893 53.2956C62.4314 53.3152 62.4686 53.344 62.498 53.38C62.5295 53.4179 62.5517 53.4626 62.5627 53.5106C62.5737 53.5587 62.5734 53.6086 62.5616 53.6564L62.3432 54.7623C62.324 54.8529 62.2748 54.9344 62.2035 54.9936C62.1323 55.0527 62.0432 55.0862 61.9506 55.0885H60.8448Z" fill="white"/>
<path d="M60.8447 54.9502H61.9505C62.0099 54.9471 62.0667 54.9251 62.1125 54.8872C62.1583 54.8494 62.1907 54.7978 62.2049 54.7401L62.4233 53.6342C62.4302 53.6083 62.431 53.5812 62.4255 53.555C62.4201 53.5288 62.4085 53.5042 62.3919 53.4832C62.3752 53.4622 62.3539 53.4455 62.3296 53.4342C62.3052 53.423 62.2786 53.4176 62.2519 53.4186H61.146C61.0854 53.4213 61.0274 53.4439 60.981 53.4829C60.9345 53.5219 60.9022 53.575 60.8889 53.6342L60.6705 54.7401C60.6645 54.7658 60.6645 54.7926 60.6706 54.8183C60.6767 54.844 60.6886 54.868 60.7055 54.8883C60.7223 54.9087 60.7437 54.9248 60.7678 54.9356C60.792 54.9463 60.8183 54.9513 60.8447 54.9502Z" fill="#263238"/>
<path d="M61.4055 54.6711C61.3972 54.6714 61.3888 54.6699 61.3812 54.6665C61.3735 54.6632 61.3667 54.6581 61.3613 54.6517C61.3514 54.6358 61.3479 54.6166 61.3515 54.5982C61.3551 54.5797 61.3655 54.5633 61.3806 54.5522L61.8202 54.1873L61.5272 53.8223C61.5166 53.8066 61.5127 53.7872 61.5163 53.7686C61.5199 53.7499 61.5308 53.7335 61.5465 53.7228C61.5597 53.7108 61.577 53.7041 61.5949 53.7041C61.6128 53.7041 61.63 53.7108 61.6433 53.7228L61.975 54.1375C61.9856 54.1533 61.9895 54.1726 61.9859 54.1913C61.9823 54.2099 61.9714 54.2264 61.9557 54.237L61.4608 54.6517C61.4452 54.6645 61.4257 54.6713 61.4055 54.6711Z" fill="#1D9CD3"/>
<path d="M61.9036 54.2564H61.1572C61.1486 54.2567 61.14 54.255 61.1322 54.2514C61.1244 54.2478 61.1176 54.2424 61.1122 54.2357C61.1069 54.229 61.1031 54.2211 61.1013 54.2127C61.0995 54.2043 61.0997 54.1956 61.1019 54.1873C61.1061 54.1682 61.1166 54.1511 61.1316 54.1386C61.1466 54.1261 61.1653 54.1189 61.1848 54.1182H61.9285C61.9371 54.1179 61.9456 54.1196 61.9534 54.1232C61.9612 54.1268 61.9681 54.1322 61.9734 54.1389C61.9788 54.1456 61.9825 54.1535 61.9843 54.1619C61.9861 54.1703 61.9859 54.179 61.9838 54.1873C61.9797 54.2059 61.9696 54.2227 61.9552 54.2352C61.9407 54.2476 61.9226 54.2551 61.9036 54.2564Z" fill="#1D9CD3"/>
<path d="M37.6738 37.3784H43.6344C44.2635 37.3784 44.7734 36.8685 44.7734 36.2394V30.2788C44.7734 29.6497 44.2635 29.1397 43.6344 29.1397H37.6738C37.0447 29.1397 36.5348 29.6497 36.5348 30.2788V36.2394C36.5348 36.8685 37.0447 37.3784 37.6738 37.3784Z" fill="#1D9CD3"/>
<path d="M40.0098 37.0688L40.6539 39.839L41.2981 37.0688H40.0098Z" fill="#1D9CD3"/>
<path opacity="0.3" d="M40.5824 35.728C39.8812 35.3101 39.2959 34.7233 38.8796 34.0212C38.4633 33.319 38.2294 32.5239 38.1992 31.7082V31.6197L40.6515 30.5747L43.101 31.6197V31.7082C43.0725 32.524 42.8397 33.3195 42.4238 34.0219C42.0078 34.7242 41.4222 35.3109 40.7206 35.728L40.6487 35.7723L40.5824 35.728Z" fill="white"/>
<path opacity="0.6" d="M40.6538 30.7266L42.9678 31.7108C42.9426 32.5034 42.7171 33.2768 42.3125 33.9589C41.9079 34.6409 41.3373 35.2095 40.6538 35.6117V30.7266Z" fill="white"/>
<path opacity="0.4" d="M40.6542 30.7266L38.3374 31.7108C38.363 32.5037 38.5888 33.2772 38.9939 33.9593C39.399 34.6414 39.9702 35.2099 40.6542 35.6117V30.7266Z" fill="white"/>
<path d="M38.4287 61.9589L40.364 62.2492C40.8034 62.1095 41.2552 62.0123 41.7131 61.9589C42.2099 61.918 42.7092 61.918 43.206 61.9589C43.206 61.9589 44.0824 62.2879 44.0824 63.1256C44.0824 63.1256 42.0393 63.6785 41.257 63.344L38.4287 63.1256V61.9589Z" fill="#E4897B"/>
<path opacity="0.2" d="M38.4287 61.9589L40.364 62.2492C40.8034 62.1095 41.2552 62.0123 41.7131 61.9589C42.2099 61.918 42.7092 61.918 43.206 61.9589C43.206 61.9589 44.0824 62.2879 44.0824 63.1256C44.0824 63.1256 42.0393 63.6785 41.257 63.344L38.4287 63.1256V61.9589Z" fill="black"/>
<path d="M43.2226 48.8906C43.2527 49.2884 43.3307 49.681 43.4548 50.0601C43.3534 50.1224 43.2366 50.1554 43.1176 50.1554C42.9985 50.1554 42.8817 50.1224 42.7803 50.0601L43.2226 48.8906Z" fill="#AA473D"/>
<path d="M43.9773 48.3374C43.9027 48.5171 43.77 48.6332 43.6788 48.5945C43.5875 48.5558 43.5792 48.3844 43.6511 48.2047C43.723 48.025 43.8585 47.9116 43.9497 47.9476C44.0409 47.9835 44.0492 48.1604 43.9773 48.3374Z" fill="#263238"/>
<path d="M44.4305 47.7183C44.4143 47.7232 44.397 47.7232 44.3808 47.7183C44.2338 47.6319 44.0693 47.5796 43.8995 47.5652C43.7296 47.5509 43.5587 47.5748 43.3993 47.6353C43.3755 47.6474 43.3478 47.6496 43.3224 47.6413C43.297 47.633 43.2759 47.6149 43.2638 47.5911C43.2517 47.5673 43.2496 47.5396 43.2579 47.5142C43.2662 47.4888 43.2842 47.4677 43.3081 47.4556C43.4975 47.3784 43.7024 47.3465 43.9064 47.3623C44.1103 47.3782 44.3078 47.4414 44.4831 47.5468C44.4944 47.5536 44.5043 47.5627 44.5121 47.5733C44.52 47.584 44.5256 47.5961 44.5287 47.609C44.5318 47.6219 44.5323 47.6352 44.5301 47.6483C44.528 47.6614 44.5233 47.6739 44.5162 47.6851C44.506 47.6975 44.4927 47.707 44.4777 47.7129C44.4627 47.7187 44.4465 47.7205 44.4305 47.7183Z" fill="#263238"/>
<path d="M42.6832 50.394C42.6196 50.4714 42.556 50.546 42.4869 50.6152C42.0997 51.0175 41.5992 51.2923 41.052 51.4031C40.9134 51.4312 40.773 51.4497 40.6318 51.4584C40.26 51.4816 39.8877 51.4217 39.5419 51.283C39.1962 51.1443 38.8856 50.9303 38.6329 50.6566C38.4049 50.409 38.2299 50.1173 38.1187 49.7996C37.6238 48.4725 38.1187 47.4275 38.8348 45.589C38.994 45.158 39.2606 44.7748 39.6093 44.4757C39.9581 44.1766 40.3774 43.9716 40.8277 43.8799C41.2779 43.7883 41.744 43.8131 42.182 43.952C42.6199 44.091 43.0151 44.3395 43.3301 44.6739C44.7622 46.1834 43.8001 48.9564 42.6832 50.394Z" fill="#E4897B"/>
<path opacity="0.2" d="M41.0524 51.4035C40.9137 51.4316 40.7733 51.45 40.6321 51.4588C40.2603 51.482 39.888 51.4221 39.5423 51.2834C39.1965 51.1447 38.886 50.9307 38.6333 50.657C38.8109 50.4784 39.0107 50.3232 39.2277 50.1953C39.9395 50.4141 40.573 50.8336 41.0524 51.4035Z" fill="black"/>
<path d="M35.0918 51.4724C35.2743 52.7663 38.1053 53.2501 38.1053 53.2501C38.1053 53.2501 39.4876 53.886 39.5595 53.333C38.9817 52.664 38.9181 52.0806 39.1171 51.5692C39.2492 51.2572 39.4429 50.9751 39.6867 50.7398C39.8166 50.6048 39.9541 50.4775 40.0986 50.3583L39.2333 46.814C38.6112 48.1686 36.4935 51.2789 35.0918 51.4724Z" fill="#E4897B"/>
<path d="M43.1704 43.6812C43.1704 43.6812 43.7759 43.6066 44.2403 44.7346C44.6301 45.6829 43.7095 45.8902 43.751 46.8993C43.7924 47.9084 42.8663 48.4696 42.8663 48.4696C42.8663 48.4696 42.0922 49.1387 41.4314 48.7765C41.4314 48.7765 40.5689 49.1995 40.3422 49.9377C40.1155 50.6758 38.7801 49.3433 37.5775 49.5451C37.5775 49.5451 36.7647 48.7848 36.8255 46.938C36.8715 46.1361 37.0685 45.3501 37.4061 44.6212C37.5655 44.2353 37.8002 43.885 38.0964 43.5908C38.3925 43.2965 38.7443 43.0641 39.1312 42.9071C40.5053 42.2823 42.9133 42.7468 43.1704 43.6812Z" fill="#263238"/>
<path d="M41.265 48.2212C41.2232 48.4052 41.2229 48.5961 41.264 48.7802C41.3051 48.9643 41.3867 49.1369 41.5028 49.2856C41.7958 49.6063 42.2686 49.1999 42.4593 48.6387C42.6252 48.1383 42.6833 47.3559 42.252 47.2564C41.8207 47.1568 41.3562 47.6821 41.265 48.2212Z" fill="#E4897B"/>
<path d="M41.5695 52.5423C41.1732 53.6482 40.8193 54.708 40.5079 55.7217C40.3088 56.352 40.1263 56.9685 39.9549 57.5629C39.8149 58.0624 39.684 58.5471 39.5623 59.0171C39.5043 59.2438 39.4462 59.4678 39.3909 59.6889C39.0868 60.9082 38.838 62.0195 38.6472 63.0065C38.325 64.5472 38.086 66.1041 37.9312 67.6705L27.0938 66.3048C27.4697 64.4414 27.7628 62.813 28.172 61.0519C28.3987 60.0898 28.6558 59.089 29.0014 57.9914C29.2336 57.2035 29.5045 56.3658 29.8308 55.4563C30.92 52.3322 31.9236 51.4669 31.9236 51.4669C36.0678 50.8033 41.5695 52.5423 41.5695 52.5423Z" fill="#F7941E"/>
<path d="M45.1772 62.1605L47.1125 62.4508C47.5519 62.3111 48.0037 62.2139 48.4617 62.1605C48.9594 62.1197 49.4596 62.1197 49.9573 62.1605C49.9573 62.1605 50.831 62.4895 50.831 63.3272C50.831 63.3272 48.7906 63.8801 48.0055 63.5456L45.18 63.3272L45.1772 62.1605Z" fill="#E4897B"/>
<path d="M33.1978 97.8992L35.2187 97.9351L36.2251 93.2767L34.2069 93.2407L33.1978 97.8992Z" fill="#EBB376"/>
<path opacity="0.2" d="M34.2071 93.2407L36.2253 93.2794L35.6502 95.9418L33.6514 95.8091L34.2071 93.2407Z" fill="black"/>
<path d="M39.6922 86.4922C38.9221 89.4569 37.9381 92.3619 36.7478 95.1843L33.0626 94.9078C33.0626 94.9078 34.5748 88.9998 35.1222 83.5866C35.4623 80.2469 35.4319 77.4822 34.4532 77.2693C33.8394 77.1339 32.399 77.1366 30.5522 77.1809V70.2969C35.7304 71.3613 40.8838 73.3656 41.2763 74.9747C41.8237 77.2389 40.8672 82.0328 39.6922 86.4922Z" fill="#1D9CD3"/>
<path d="M32.6699 95.0739L37.0602 95.3669L37.7071 93.4676L32.869 93.2437L32.6699 95.0739Z" fill="#1D9CD3"/>
<path opacity="0.2" d="M32.6699 95.0739L37.0602 95.3669L37.7071 93.4676L32.869 93.2437L32.6699 95.0739Z" fill="white"/>
<path d="M35.5228 97.8356H35.5643C35.5643 97.8356 35.6113 97.8495 35.6168 97.855H35.6334C35.8041 97.9091 35.9803 97.9443 36.1587 97.9601C36.2916 97.9848 36.4289 97.9581 36.5429 97.8854C36.5791 97.8539 36.6054 97.8126 36.6186 97.7665C36.6319 97.7204 36.6315 97.6714 36.6176 97.6255C36.6132 97.5955 36.6016 97.567 36.5838 97.5425C36.5659 97.5179 36.5425 97.498 36.5153 97.4845C36.3244 97.454 36.1288 97.4912 35.9624 97.5896C36.0813 97.4641 36.1518 97.3005 36.1614 97.1279C36.1533 97.0871 36.1322 97.05 36.1013 97.0221C36.0705 96.9942 36.0314 96.977 35.99 96.9731C35.9114 96.9615 35.8313 96.9803 35.7661 97.0256C35.5532 97.2081 35.52 97.7804 35.52 97.8135L35.5228 97.8356ZM35.7412 97.7195L35.6997 97.7417C35.6866 97.5232 35.7459 97.3065 35.8684 97.1251C35.8817 97.1118 35.8977 97.1014 35.9153 97.0947C35.933 97.0881 35.9518 97.0852 35.9707 97.0864H35.9955C36.0619 97.0864 36.0757 97.1307 36.0785 97.1583C36.0358 97.3793 35.9163 97.5781 35.7412 97.7195ZM35.7688 97.8191C36.0121 97.6836 36.3577 97.5426 36.4876 97.5951C36.5006 97.6019 36.5116 97.6117 36.5198 97.6238C36.528 97.6358 36.5331 97.6497 36.5346 97.6642C36.5428 97.6933 36.543 97.724 36.5352 97.7532C36.5274 97.7824 36.512 97.809 36.4904 97.8301C36.3909 97.9186 36.1255 97.9131 35.7688 97.8191Z" fill="#1D9CD3"/>
<path d="M35.4758 97.5924L33.2115 97.4514C33.1738 97.4476 33.1361 97.4587 33.1066 97.4826C33.077 97.5064 33.0581 97.5409 33.054 97.5786L32.8328 99.3618C32.8267 99.4556 32.8578 99.5479 32.9194 99.6188C32.981 99.6897 33.0681 99.7335 33.1618 99.7406C33.9525 99.7765 34.3312 99.7544 35.3265 99.8097C36.2099 99.9006 37.0987 99.9283 37.9861 99.8926C38.8155 99.8125 38.7243 98.9803 38.3621 98.9416C37.4968 98.8421 36.355 98.209 35.8131 97.7279C35.7191 97.646 35.6003 97.5983 35.4758 97.5924Z" fill="#263238"/>
<path opacity="0.2" d="M39.6922 86.4922C38.3099 85.6214 36.7036 84.5957 35.1222 83.581C35.4623 80.2413 35.4319 77.4767 34.4532 77.2638C33.8394 77.1283 32.399 77.1311 30.5522 77.1753V70.2969C35.7304 71.3613 40.8838 73.3656 41.2763 74.9747C41.8237 77.2389 40.8672 82.0328 39.6922 86.4922Z" fill="black"/>
<path d="M45.0112 97.8992L47.0322 97.9351L48.0385 93.2767L46.0203 93.2407L45.0112 97.8992Z" fill="#EBB376"/>
<path opacity="0.2" d="M46.0205 93.2407L48.0387 93.2794L47.4637 95.9418L45.4648 95.8091L46.0205 93.2407Z" fill="black"/>
<path d="M37.6739 69.6222L38.0001 67.0124L27.4474 65.2734C27.4474 65.2734 23.9944 72.1132 25.6836 75.475C27.2346 78.5493 43.7285 76.7163 46.2665 77.272C48.8044 77.8277 44.8841 94.9133 44.8841 94.9133L48.5722 95.1898C48.5722 95.1898 54.2674 79.8183 53.0979 74.9829C52.5782 72.8679 43.8833 70.0729 37.6739 69.6222Z" fill="#1D9CD3"/>
<path d="M44.4834 95.0739L48.8737 95.3669L49.5206 93.4676L44.6825 93.2437L44.4834 95.0739Z" fill="#1D9CD3"/>
<path opacity="0.2" d="M44.4834 95.0739L48.8737 95.3669L49.5206 93.4676L44.6825 93.2437L44.4834 95.0739Z" fill="white"/>
<path d="M47.3363 97.8356H47.3777C47.3777 97.8356 47.4247 97.8495 47.4303 97.855H47.4468C47.6176 97.9091 47.7937 97.9443 47.9721 97.9601C48.1051 97.9848 48.2424 97.9581 48.3564 97.8854C48.3926 97.8539 48.4189 97.8126 48.4321 97.7665C48.4454 97.7204 48.445 97.6714 48.4311 97.6255C48.4266 97.5955 48.415 97.567 48.3972 97.5425C48.3794 97.5179 48.3559 97.498 48.3288 97.4845C48.1378 97.454 47.9423 97.4912 47.7758 97.5896C47.8948 97.4641 47.9653 97.3005 47.9749 97.1279C47.9668 97.0871 47.9457 97.05 47.9148 97.0221C47.8839 96.9942 47.8449 96.977 47.8035 96.9731C47.7249 96.9615 47.6448 96.9803 47.5796 97.0256C47.3667 97.2081 47.3335 97.7804 47.3335 97.8135L47.3363 97.8356ZM47.5547 97.7195L47.5132 97.7417C47.5001 97.5232 47.5594 97.3065 47.6818 97.1251C47.6952 97.1118 47.7112 97.1014 47.7288 97.0947C47.7465 97.0881 47.7653 97.0852 47.7841 97.0864H47.809C47.8754 97.0864 47.8892 97.1307 47.892 97.1583C47.8497 97.3802 47.729 97.5794 47.5519 97.7195H47.5547ZM47.5823 97.8191C47.8256 97.6836 48.1712 97.5426 48.3011 97.5951C48.314 97.6019 48.3251 97.6117 48.3333 97.6238C48.3415 97.6358 48.3466 97.6497 48.3481 97.6642C48.3563 97.6933 48.3565 97.724 48.3487 97.7532C48.3409 97.7824 48.3254 97.809 48.3039 97.8301C48.2044 97.9186 47.939 97.9131 47.5823 97.8191Z" fill="#1D9CD3"/>
<path d="M47.2898 97.5924L45.0255 97.4514C44.9878 97.4476 44.95 97.4587 44.9205 97.4826C44.891 97.5064 44.8721 97.5409 44.8679 97.5786L44.6467 99.3618C44.6407 99.4556 44.6718 99.5479 44.7334 99.6188C44.795 99.6897 44.8821 99.7335 44.9757 99.7406C45.7664 99.7765 46.1452 99.7544 47.1405 99.8097C48.0239 99.9006 48.9127 99.9283 49.8001 99.8926C50.6433 99.8125 50.541 98.9803 50.1761 98.9416C49.3107 98.8421 48.1689 98.209 47.627 97.7279C47.5331 97.646 47.4142 97.5983 47.2898 97.5924Z" fill="#263238"/>
<path d="M27.0601 66.4619L31.948 67.1033L32.1083 66.3817L27.2094 65.6685L27.0601 66.4619Z" fill="black"/>
<path d="M32.5149 66.3877L32.4541 67.1037L36.9743 67.7258V67.0153L32.5149 66.3877Z" fill="black"/>
<path d="M37.2534 67.0566V67.7257L37.9114 67.8114V67.1645L37.2534 67.0566Z" fill="black"/>
<path opacity="0.2" d="M40.5078 55.7217C40.3087 56.352 40.1263 56.9686 39.9549 57.563C39.8148 58.0624 39.6839 58.5472 39.5623 59.0172C39.2222 57.1648 39.8387 54.9531 39.8387 54.9531L40.5078 55.7217Z" fill="black"/>
<path d="M41.5693 52.5283C42.4512 52.708 42.7415 59.5616 42.7802 60.2915C42.8189 61.0213 47.1096 62.4396 47.1096 62.4396V63.4376C47.1096 63.4376 42.5092 63.1169 41.4338 62.6774C40.3583 62.2378 40.0874 55.8901 40.0874 55.8901L41.5693 52.5283Z" fill="#E4897B"/>
<path d="M41.5697 52.5283C42.3798 52.7799 42.7806 57.3001 42.7806 57.3001L40.2759 58.3341L39.6538 55.821C39.6538 55.821 39.4769 55.3096 39.8252 54.2313C40.3312 52.6583 41.5697 52.5283 41.5697 52.5283Z" fill="#F7941E"/>
<path d="M22.8856 75.0659H42.8519C43.4319 75.0659 43.9881 75.2963 44.3982 75.7064C44.8084 76.1165 45.0388 76.6728 45.0388 77.2528V78.4222H20.6987V77.2528C20.6987 76.6728 20.9291 76.1165 21.3392 75.7064C21.7494 75.2963 22.3056 75.0659 22.8856 75.0659Z" fill="#1D9CD3"/>
<path d="M29.3799 66.7524H42.7857C42.9473 66.7524 43.1068 66.7888 43.2523 66.8591C43.3978 66.9293 43.5256 67.0315 43.626 67.158C43.7265 67.2846 43.7971 67.4322 43.8326 67.5898C43.868 67.7474 43.8674 67.911 43.8307 68.0684L41.4338 78.422H40.8808L42.9212 69.3484C42.9569 69.1916 42.9568 69.0287 42.9209 68.8719C42.885 68.7151 42.8142 68.5684 42.7138 68.4427C42.6134 68.3171 42.4859 68.2157 42.3409 68.1461C42.1958 68.0765 42.037 68.0405 41.8761 68.0408H29.6536L29.3799 66.7524Z" fill="#263238"/>
<path d="M34.4557 78.7925V87.5426C34.4557 87.6775 34.4021 87.8069 34.3067 87.9023C34.2113 87.9977 34.0819 88.0513 33.947 88.0513H31.7934C31.6584 88.0513 31.5291 87.9977 31.4337 87.9023C31.3383 87.8069 31.2847 87.6775 31.2847 87.5426V78.7925H34.4557Z" fill="#263238"/>
<path d="M22.6122 98.9914C22.6122 98.8077 22.5578 98.6281 22.4557 98.4753C22.3536 98.3226 22.2085 98.2035 22.0388 98.1332C21.8691 98.0629 21.6823 98.0445 21.5021 98.0803C21.3219 98.1162 21.1564 98.2047 21.0265 98.3346C20.8966 98.4645 20.8081 98.63 20.7722 98.8102C20.7364 98.9904 20.7548 99.1772 20.8251 99.3469C20.8954 99.5166 21.0145 99.6617 21.1672 99.7638C21.32 99.8659 21.4996 99.9204 21.6833 99.9204C21.9297 99.9204 22.166 99.8225 22.3402 99.6483C22.5144 99.4741 22.6122 99.2378 22.6122 98.9914Z" fill="#263238"/>
<path opacity="0.2" d="M22.1477 98.9913C22.1477 98.8995 22.1204 98.8097 22.0694 98.7333C22.0184 98.6569 21.9458 98.5974 21.861 98.5622C21.7761 98.5271 21.6827 98.5179 21.5926 98.5358C21.5025 98.5537 21.4197 98.5979 21.3548 98.6629C21.2898 98.7279 21.2456 98.8106 21.2277 98.9007C21.2098 98.9908 21.219 99.0842 21.2541 99.1691C21.2893 99.2539 21.3488 99.3265 21.4252 99.3775C21.5016 99.4285 21.5914 99.4558 21.6832 99.4558C21.8062 99.455 21.9239 99.4059 22.0108 99.3189C22.0978 99.232 22.1469 99.1143 22.1477 98.9913Z" fill="white"/>
<path d="M44.9918 98.9911C44.9923 98.8066 44.9381 98.6261 44.8359 98.4724C44.7338 98.3188 44.5883 98.1989 44.4179 98.1281C44.2476 98.0572 44.06 98.0385 43.879 98.0744C43.698 98.1103 43.5318 98.1991 43.4013 98.3295C43.2708 98.46 43.182 98.6263 43.1462 98.8072C43.1103 98.9882 43.129 99.1758 43.1999 99.3461C43.2707 99.5165 43.3906 99.662 43.5442 99.7642C43.6978 99.8663 43.8784 99.9206 44.0629 99.92C44.309 99.9193 44.5449 99.8212 44.7189 99.6471C44.893 99.4731 44.9911 99.2372 44.9918 98.9911Z" fill="#263238"/>
<path opacity="0.2" d="M44.5276 98.9913C44.5276 98.8995 44.5003 98.8097 44.4493 98.7333C44.3982 98.6569 44.3257 98.5974 44.2408 98.5622C44.156 98.5271 44.0626 98.5179 43.9725 98.5358C43.8824 98.5537 43.7996 98.5979 43.7347 98.6629C43.6697 98.7279 43.6255 98.8106 43.6076 98.9007C43.5896 98.9908 43.5988 99.0842 43.634 99.1691C43.6691 99.2539 43.7287 99.3265 43.8051 99.3775C43.8814 99.4285 43.9712 99.4558 44.0631 99.4558C44.1861 99.455 44.3038 99.4059 44.3907 99.3189C44.4777 99.232 44.5268 99.1143 44.5276 98.9913Z" fill="white"/>
<path d="M33.6401 94.9107V84.9082H32.1029V94.9107C26.1147 95.0655 22.4736 97.1584 21.7465 97.6173C21.7036 97.6427 21.6683 97.6793 21.6445 97.7231C21.6206 97.7669 21.6091 97.8163 21.6111 97.8661V98.6955C21.6107 98.7343 21.618 98.7727 21.6326 98.8085C21.6471 98.8444 21.6687 98.877 21.6959 98.9045C21.7232 98.9321 21.7556 98.9539 21.7913 98.9688C21.8271 98.9837 21.8654 98.9914 21.9041 98.9914C21.9559 98.9909 22.0066 98.9769 22.0512 98.9507C22.0958 98.9245 22.1328 98.887 22.1585 98.8421L22.5151 98.2173C25.6176 97.2279 28.8471 96.6934 32.1029 96.6303V98.2891C32.1029 98.3391 32.1128 98.3886 32.132 98.4347C32.1512 98.4809 32.1794 98.5227 32.2148 98.5579C32.2503 98.5931 32.2924 98.621 32.3386 98.6399C32.3849 98.6587 32.4345 98.6683 32.4844 98.6679H33.2613C33.3618 98.6679 33.4581 98.628 33.5291 98.557C33.6002 98.4859 33.6401 98.3896 33.6401 98.2891V96.6303C36.8968 96.6932 40.1272 97.2277 43.2307 98.2173L43.5845 98.8421C43.6104 98.8874 43.6478 98.9251 43.693 98.9514C43.7381 98.9776 43.7894 98.9914 43.8417 98.9914C43.9196 98.9906 43.9942 98.9591 44.049 98.9037C44.1039 98.8483 44.1347 98.7735 44.1347 98.6955V97.8661C44.1367 97.8163 44.1251 97.7669 44.1013 97.7231C44.0774 97.6793 44.0422 97.6427 43.9992 97.6173C43.2694 97.1584 39.6311 95.0655 33.6401 94.9107Z" fill="#263238"/>
<path d="M33.3778 98.0596H32.3687V99.9202H33.3778V98.0596Z" fill="#263238"/>
<path opacity="0.2" d="M34.4557 78.7847H31.293V82.4202H34.4557V78.7847Z" fill="black"/>
<path d="M45.7139 77.8832V78.9282C45.7139 78.9985 45.7 79.0681 45.6731 79.1331C45.6461 79.198 45.6065 79.2569 45.5567 79.3065C45.5068 79.3561 45.4477 79.3953 45.3826 79.422C45.3176 79.4486 45.2479 79.4622 45.1776 79.4618H20.5722C20.502 79.4622 20.4324 79.4486 20.3675 79.4219C20.3026 79.3953 20.2437 79.356 20.194 79.3063C20.1444 79.2567 20.1051 79.1978 20.0785 79.1328C20.0518 79.0679 20.0382 78.9984 20.0386 78.9282V77.8832C20.0386 77.7417 20.0948 77.606 20.1949 77.5059C20.2949 77.4058 20.4306 77.3496 20.5722 77.3496H45.1776C45.3194 77.3496 45.4554 77.4057 45.5559 77.5057C45.6564 77.6057 45.7132 77.7414 45.7139 77.8832Z" fill="#263238"/>
<path d="M34.3922 78.4227H20.0353C20.0353 78.4227 15.4819 70.8365 15.4819 58.3015V53.6984C15.4827 52.7896 15.8442 51.9184 16.487 51.2761C17.1298 50.6338 18.0014 50.2729 18.9101 50.2729H24.9923C25.8824 50.2725 26.7378 50.6186 27.3771 51.2378C28.0165 51.8571 28.3897 52.7009 28.4178 53.5905C28.5919 60.0598 29.543 74.0462 34.3922 78.4227Z" fill="#263238"/>
<path opacity="0.2" d="M31.2405 78.4227H20.6822C20.4826 78.4236 20.2866 78.3693 20.1159 78.2659C19.9451 78.1625 19.8063 78.0139 19.7146 77.8366C18.6751 75.835 15.4819 68.8044 15.4819 58.3015V53.6984C15.4819 52.7899 15.8428 51.9186 16.4852 51.2762C17.1276 50.6338 17.9989 50.2729 18.9073 50.2729H24.1602C25.0503 50.2725 25.9056 50.6186 26.545 51.2378C27.1844 51.8571 27.5576 52.7009 27.5856 53.5905C27.7432 59.3604 28.5173 71.1406 32.139 76.7058C32.2484 76.8708 32.3115 77.0621 32.3218 77.2599C32.332 77.4576 32.289 77.6544 32.1972 77.8298C32.1054 78.0052 31.9682 78.1528 31.7999 78.2571C31.6316 78.3613 31.4384 78.4185 31.2405 78.4227Z" fill="white"/>
<path opacity="0.2" d="M45.7135 77.8832V78.9282C45.7135 79.0697 45.6573 79.2055 45.5573 79.3055C45.4572 79.4056 45.3215 79.4618 45.18 79.4618H34.1518C34.0571 79.4622 33.9634 79.4438 33.8758 79.4079C33.7883 79.3719 33.7087 79.319 33.6417 79.2523C33.5746 79.1855 33.5215 79.1061 33.4852 79.0187C33.4489 78.9313 33.4302 78.8376 33.4302 78.743V78.0712C33.4302 77.8798 33.5062 77.6963 33.6415 77.561C33.7768 77.4256 33.9604 77.3496 34.1518 77.3496H45.1772C45.319 77.3496 45.455 77.4057 45.5555 77.5057C45.656 77.6057 45.7128 77.7414 45.7135 77.8832Z" fill="black"/>
<path d="M20.0298 49.8662L20.9421 48.6719C20.9421 48.6719 24.8375 48.8488 24.9315 50.2726C25.0255 51.6964 20.0298 49.8662 20.0298 49.8662Z" fill="#1D9CD3"/>
<path d="M17.4698 53.4409C17.4698 53.4409 17.7075 59.772 17.4698 76.1111C17.4698 76.664 15.4073 76.6419 15.258 76.1111C14.7632 74.2505 15.258 59.3932 15.258 59.3932" fill="#1D9CD3"/>
<path d="M15.3052 76.1938L17.4035 76.2657V77.3135L15.3052 77.2057V76.1938Z" fill="#1D9CD3"/>
<path opacity="0.2" d="M17.4698 53.4409C17.4698 53.4409 17.7075 59.772 17.4698 76.1111C17.4698 76.664 15.4073 76.6419 15.258 76.1111C14.7632 74.2505 15.258 59.3932 15.258 59.3932" fill="white"/>
<path d="M14.2683 72.7712C14.155 69.7577 13.7431 55.9068 15.4737 51.3175C15.4737 51.3175 17.1021 49.2495 22.6121 49.2495C28.122 49.2495 29.7808 53.1615 29.7808 53.1615C29.7808 53.1615 30.0186 59.4898 29.7808 75.8317C29.7808 76.3846 27.7184 76.3653 27.5691 75.8317C27.0742 73.9738 27.5691 59.1138 27.5691 59.1138L26.4632 72.633C26.4592 72.6783 26.446 72.7223 26.4243 72.7624C26.4027 72.8024 26.3731 72.8376 26.3374 72.8658C26.3017 72.894 26.2606 72.9146 26.2166 72.9264C26.1727 72.9382 26.1268 72.9409 26.0817 72.9343C24.3428 72.6578 16.6819 71.5824 14.6554 72.9647C14.6187 72.9883 14.5765 73.002 14.5329 73.0044C14.4893 73.0067 14.4458 72.9977 14.4068 72.9782C14.3677 72.9586 14.3344 72.9293 14.3102 72.893C14.2859 72.8567 14.2715 72.8147 14.2683 72.7712Z" fill="#1D9CD3"/>
<path d="M27.6157 75.9146L29.7141 75.9864V77.0342L27.6157 76.9264V75.9146Z" fill="#1D9CD3"/>
<path d="M26.195 72.9481L26.0291 74.054C26.0291 74.054 17.4781 72.1906 14.7079 74.1756L14.542 72.9509C14.542 72.9509 16.6818 70.9769 26.195 72.9481Z" fill="#1D9CD3"/>
<path opacity="0.4" d="M14.2683 72.7712C14.155 69.7577 13.7431 55.9068 15.4737 51.3175C15.4737 51.3175 17.1021 49.2495 22.6121 49.2495C28.122 49.2495 29.7808 53.1615 29.7808 53.1615C29.7808 53.1615 30.0186 59.4898 29.7808 75.8317C29.7808 76.3846 27.7184 76.3653 27.5691 75.8317C27.0742 73.9738 27.5691 59.1138 27.5691 59.1138L26.4632 72.633C26.4592 72.6783 26.446 72.7223 26.4243 72.7624C26.4027 72.8024 26.3731 72.8376 26.3374 72.8658C26.3017 72.894 26.2606 72.9146 26.2166 72.9264C26.1727 72.9382 26.1268 72.9409 26.0817 72.9343C24.3428 72.6578 16.6819 71.5824 14.6554 72.9647C14.6187 72.9883 14.5765 73.002 14.5329 73.0044C14.4893 73.0067 14.4458 72.9977 14.4068 72.9782C14.3677 72.9586 14.3344 72.9293 14.3102 72.893C14.2859 72.8567 14.2715 72.8147 14.2683 72.7712Z" fill="white"/>
<path opacity="0.2" d="M27.5776 59.1139C27.5776 59.1139 27.6992 54.8232 29.7893 53.1616C29.781 53.1616 27.1767 54.2813 27.5776 59.1139Z" fill="black"/>
<path opacity="0.2" d="M21.3071 49.7446C21.3071 49.7446 18.7913 51.127 18.3904 69.9626C18.3904 69.9626 17.2956 50.9611 21.3071 49.7446Z" fill="black"/>
</svg>
