<svg width="22" height="21" viewBox="0 0 22 21" fill="none" xmlns="http://www.w3.org/2000/svg">
<path d="M11.951 1.92708C11.652 1.00608 10.349 1.00608 10.049 1.92708L8.52997 6.60108C8.46455 6.80173 8.33732 6.97654 8.1665 7.10048C7.99568 7.22442 7.79002 7.29113 7.57897 7.29108H2.66497C1.69697 7.29108 1.29297 8.53108 2.07697 9.10108L6.05297 11.9891C6.22377 12.1132 6.35087 12.2883 6.41608 12.4891C6.48129 12.6899 6.48125 12.9063 6.41597 13.1071L4.89797 17.7811C4.59797 18.7021 5.65297 19.4691 6.43597 18.8991L10.412 16.0111C10.5829 15.8869 10.7887 15.8199 11 15.8199C11.2112 15.8199 11.4171 15.8869 11.588 16.0111L15.564 18.8991C16.347 19.4691 17.402 18.7031 17.102 17.7811L15.584 13.1071C15.5187 12.9063 15.5187 12.6899 15.5839 12.4891C15.6491 12.2883 15.7762 12.1132 15.947 11.9891L19.923 9.10108C20.706 8.53108 20.304 7.29108 19.335 7.29108H14.42C14.2091 7.29092 14.0037 7.22411 13.833 7.10018C13.6624 6.97626 13.5353 6.80157 13.47 6.60108L11.951 1.92708Z" stroke="#1D9CD3" stroke-width="2" stroke-linecap="round" stroke-linejoin="round"/>
</svg>
