<svg width="18" height="12" viewBox="0 0 18 12" fill="none" xmlns="http://www.w3.org/2000/svg">
<path d="M5.89289 9.81054L6.6 10.5176L7.30711 9.81054L16.0586 1.05905C16.0961 1.02155 16.147 1.00049 16.2 1.00049C16.253 1.00049 16.3039 1.02155 16.3414 1.05905C16.3788 1.09653 16.3997 1.1473 16.3997 1.20023C16.3997 1.25327 16.3787 1.30413 16.3412 1.34163L6.7414 10.9414C6.70389 10.9789 6.65303 11 6.6 11C6.54697 11 6.49611 10.9789 6.4586 10.9414L1.66743 6.15025C1.63318 6.11295 1.61431 6.064 1.61475 6.01324C1.61521 5.9608 1.63624 5.91064 1.67332 5.87356C1.71041 5.83647 1.76057 5.81544 1.81301 5.81499C1.86377 5.81454 1.91272 5.83342 1.95002 5.86767L5.89289 9.81054Z" fill="white" stroke="white" stroke-width="2"/>
</svg>
