<svg width="19" height="19" viewBox="0 0 19 19" fill="none" xmlns="http://www.w3.org/2000/svg">
<circle cx="9.30835" cy="9.46436" r="8.69556" fill="#D5F0FC"/>
<path d="M9.35374 12.1081C9.47476 12.1081 9.57688 12.0665 9.66009 11.9833C9.7433 11.9001 9.7849 11.7979 9.7849 11.6769C9.7849 11.5559 9.7433 11.4538 9.66009 11.3706C9.57688 11.2873 9.47476 11.2457 9.35374 11.2457C9.23271 11.2457 9.13059 11.2873 9.04738 11.3706C8.96417 11.4538 8.92257 11.5559 8.92257 11.6769C8.92257 11.7979 8.96417 11.9001 9.04738 11.9833C9.13059 12.0665 9.23271 12.1081 9.35374 12.1081ZM8.95661 10.4515H9.62605C9.62605 10.2548 9.65063 10.0752 9.6998 9.91254C9.74897 9.74991 9.90215 9.56269 10.1593 9.35089C10.3938 9.15422 10.5602 8.96133 10.6586 8.77222C10.7569 8.58312 10.8061 8.3751 10.8061 8.14817C10.8061 7.74726 10.6756 7.42578 10.4146 7.18372C10.1537 6.94166 9.80759 6.82064 9.37643 6.82064C9.00578 6.82064 8.67862 6.9133 8.39496 7.09862C8.1113 7.28395 7.90517 7.53924 7.77658 7.86451L8.37794 8.09144C8.46115 7.87964 8.58596 7.71511 8.75237 7.59787C8.91879 7.48062 9.11546 7.422 9.34239 7.422C9.59957 7.422 9.80759 7.49197 9.96644 7.63191C10.1253 7.77185 10.2047 7.9515 10.2047 8.17086C10.2047 8.33728 10.1556 8.49424 10.0572 8.64174C9.95888 8.78924 9.81516 8.94242 9.62605 9.10127C9.39912 9.29794 9.23082 9.49272 9.12113 9.68561C9.01145 9.8785 8.95661 10.1338 8.95661 10.4515ZM9.30835 14.0029C8.68808 14.0029 8.10185 13.8838 7.54965 13.6455C6.99746 13.4072 6.51524 13.082 6.10298 12.6697C5.69073 12.2575 5.36546 11.7752 5.12719 11.2231C4.88891 10.6709 4.76978 10.0846 4.76978 9.46436C4.76978 8.83652 4.88891 8.24651 5.12719 7.69431C5.36546 7.14212 5.69073 6.66179 6.10298 6.25331C6.51524 5.84484 6.99746 5.52147 7.54965 5.28319C8.10185 5.04492 8.68808 4.92578 9.30835 4.92578C9.93619 4.92578 10.5262 5.04492 11.0784 5.28319C11.6306 5.52147 12.1109 5.84484 12.5194 6.25331C12.9279 6.66179 13.2512 7.14212 13.4895 7.69431C13.7278 8.24651 13.8469 8.83652 13.8469 9.46436C13.8469 10.0846 13.7278 10.6709 13.4895 11.2231C13.2512 11.7752 12.9279 12.2575 12.5194 12.6697C12.1109 13.082 11.6306 13.4072 11.0784 13.6455C10.5262 13.8838 9.93619 14.0029 9.30835 14.0029ZM9.30835 13.3221C10.3825 13.3221 11.294 12.9458 12.0428 12.1932C12.7917 11.4405 13.1661 10.5309 13.1661 9.46436C13.1661 8.39023 12.7917 7.47873 12.0428 6.72986C11.294 5.981 10.3825 5.60657 9.30835 5.60657C8.24178 5.60657 7.33218 5.981 6.57953 6.72986C5.82689 7.47873 5.45056 8.39023 5.45056 9.46436C5.45056 10.5309 5.82689 11.4405 6.57953 12.1932C7.33218 12.9458 8.24178 13.3221 9.30835 13.3221Z" fill="#1D9CD3"/>
</svg>
