<svg width="21" height="21" viewBox="0 0 21 21" fill="none" xmlns="http://www.w3.org/2000/svg">
<path d="M5.65088 15.5715C5.8731 15.5715 6.06755 15.4882 6.23421 15.3215C6.40088 15.1548 6.48421 14.9604 6.48421 14.7382C6.48421 14.516 6.40088 14.3215 6.23421 14.1548C6.06755 13.9882 5.8731 13.9048 5.65088 13.9048C5.42866 13.9048 5.23421 13.9882 5.06755 14.1548C4.90088 14.3215 4.81755 14.516 4.81755 14.7382C4.81755 14.9604 4.90088 15.1548 5.06755 15.3215C5.23421 15.4882 5.42866 15.5715 5.65088 15.5715ZM5.65088 11.016C5.8731 11.016 6.06755 10.9326 6.23421 10.766C6.40088 10.5993 6.48421 10.4048 6.48421 10.1826C6.48421 9.9604 6.40088 9.76595 6.23421 9.59929C6.06755 9.43262 5.8731 9.34928 5.65088 9.34928C5.42866 9.34928 5.23421 9.43262 5.06755 9.59929C4.90088 9.76595 4.81755 9.9604 4.81755 10.1826C4.81755 10.4048 4.90088 10.5993 5.06755 10.766C5.23421 10.9326 5.42866 11.016 5.65088 11.016ZM5.65088 6.46039C5.8731 6.46039 6.06755 6.37706 6.23421 6.2104C6.40088 6.04373 6.48421 5.84928 6.48421 5.62706C6.48421 5.40484 6.40088 5.2104 6.23421 5.04373C6.06755 4.87706 5.8731 4.79373 5.65088 4.79373C5.42866 4.79373 5.23421 4.87706 5.06755 5.04373C4.90088 5.2104 4.81755 5.40484 4.81755 5.62706C4.81755 5.84928 4.90088 6.04373 5.06755 6.2104C5.23421 6.37706 5.42866 6.46039 5.65088 6.46039ZM9.31755 15.5715H16.0953V13.9048H9.31755V15.5715ZM9.31755 11.016H16.0953V9.34928H9.31755V11.016ZM9.31755 6.46039H16.0953V4.79373H9.31755V6.46039ZM2.31755 20.1826C1.8731 20.1826 1.48421 20.016 1.15088 19.6826C0.817546 19.3493 0.650879 18.9604 0.650879 18.516V1.84928C0.650879 1.40484 0.817546 1.01595 1.15088 0.682617C1.48421 0.349284 1.8731 0.182617 2.31755 0.182617H18.9842C19.4287 0.182617 19.8175 0.349284 20.1509 0.682617C20.4842 1.01595 20.6509 1.40484 20.6509 1.84928V18.516C20.6509 18.9604 20.4842 19.3493 20.1509 19.6826C19.8175 20.016 19.4287 20.1826 18.9842 20.1826H2.31755ZM2.31755 18.516H18.9842V1.84928H2.31755V18.516Z" fill="#1D9CD3"/>
</svg>
