<svg width="12" height="10" viewBox="0 0 12 10" fill="none" xmlns="http://www.w3.org/2000/svg">
<path d="M10.1631 3.02905C10.5732 2.72144 10.9424 2.35229 11.2295 1.92163C10.8604 2.08569 10.4297 2.20874 9.99902 2.24976C10.4502 1.98315 10.7783 1.573 10.9424 1.0603C10.5322 1.3064 10.0605 1.49097 9.58887 1.59351C9.17871 1.16284 8.625 0.916748 8.00977 0.916748C6.82031 0.916748 5.85645 1.88062 5.85645 3.07007C5.85645 3.23413 5.87695 3.39819 5.91797 3.56226C4.13379 3.45972 2.53418 2.59839 1.46777 1.3064C1.2832 1.61401 1.18066 1.98315 1.18066 2.39331C1.18066 3.13159 1.5498 3.78784 2.14453 4.17749C1.7959 4.15698 1.44727 4.07495 1.16016 3.91089V3.9314C1.16016 4.97729 1.89844 5.83862 2.88281 6.0437C2.71875 6.08472 2.51367 6.12573 2.3291 6.12573C2.18555 6.12573 2.0625 6.10522 1.91895 6.08472C2.18555 6.94604 2.98535 7.56128 3.92871 7.58179C3.19043 8.15601 2.26758 8.50464 1.2627 8.50464C1.07812 8.50464 0.914062 8.48413 0.75 8.46362C1.69336 9.07886 2.82129 9.42749 4.05176 9.42749C8.00977 9.42749 10.1631 6.16675 10.1631 3.31616C10.1631 3.21362 10.1631 3.13159 10.1631 3.02905Z" fill="#646364"/>
</svg>
