<svg width="14" height="9" viewBox="0 0 14 9" fill="none" xmlns="http://www.w3.org/2000/svg">
<path d="M4.34142 0.12085C4.71417 0.12085 5.05892 0.150016 5.37392 0.23635C5.65977 0.288876 5.93261 0.396667 6.17717 0.553683C6.40701 0.697766 6.57909 0.900183 6.69342 1.15977C6.80834 1.41935 6.86551 1.73727 6.86551 2.08318C6.86551 2.48743 6.77976 2.83335 6.57909 3.09293C6.40701 3.3531 6.12001 3.58352 5.77584 3.75677C6.26351 3.90143 6.63626 4.16102 6.86551 4.50693C7.09534 4.85343 7.23884 5.28627 7.23884 5.77685C7.23884 6.1811 7.15251 6.52702 7.00901 6.81577C6.86551 7.10452 6.63626 7.3641 6.37784 7.53735C6.09713 7.72306 5.78683 7.85957 5.46026 7.94102C5.11609 8.02793 4.77192 8.08568 4.42776 8.08568H0.583008V0.12085H4.34142ZM4.11159 3.35252C4.42717 3.35252 4.68559 3.26618 4.88626 3.1221C5.08692 2.97802 5.17326 2.71785 5.17326 2.40052C5.17326 2.22727 5.14409 2.05402 5.08692 1.9391C5.02976 1.8236 4.94342 1.73668 4.82909 1.65035C4.71417 1.5926 4.59926 1.53485 4.45576 1.50627C4.31226 1.4771 4.16934 1.4771 3.99667 1.4771H2.33301V3.3531H4.11217L4.11159 3.35252ZM4.19792 6.75802C4.37001 6.75802 4.54209 6.72885 4.68559 6.70027C4.83048 6.67271 4.96751 6.61356 5.08692 6.52702C5.20382 6.44257 5.30161 6.33444 5.37392 6.20968C5.43109 6.0656 5.48884 5.89235 5.48884 5.69052C5.48884 5.28627 5.37392 4.99752 5.14467 4.79568C4.91484 4.62243 4.59926 4.5361 4.22651 4.5361H2.33301V6.7586H4.19792V6.75802ZM9.73492 6.72885C9.96417 6.95985 10.3083 7.07535 10.7674 7.07535C11.083 7.07535 11.37 6.98902 11.5993 6.84493C11.8291 6.67168 11.9726 6.49843 12.0298 6.32518H13.4356C13.2058 7.0176 12.8616 7.50818 12.4031 7.82552C11.9434 8.11427 11.3986 8.28752 10.7388 8.28752C10.3167 8.28879 9.89815 8.21042 9.50509 8.05652C9.15142 7.92384 8.83602 7.70582 8.58692 7.42185C8.32051 7.15618 8.12358 6.82904 8.01351 6.46927C7.87001 6.09418 7.81226 5.69052 7.81226 5.22852C7.81226 4.79568 7.87001 4.39202 8.01351 4.01635C8.15148 3.65473 8.35563 3.322 8.61551 3.03518C8.87392 2.7756 9.18951 2.54518 9.53367 2.40052C9.91675 2.24655 10.326 2.16811 10.7388 2.16952C11.2265 2.16952 11.657 2.25643 12.0298 2.45827C12.4031 2.6601 12.6895 2.8911 12.9193 3.2376C13.1538 3.57041 13.3285 3.94151 13.4356 4.33427C13.4928 4.73793 13.5213 5.14218 13.4928 5.6036H9.33301C9.33301 6.0656 9.50509 6.49843 9.73492 6.72943V6.72885ZM11.5421 3.69902C11.3414 3.49718 11.0258 3.38168 10.6525 3.38168C10.4336 3.3784 10.2171 3.42782 10.0213 3.52577C9.84926 3.61268 9.73492 3.72818 9.62001 3.84368C9.51441 3.95525 9.44453 4.09581 9.41934 4.24735C9.39017 4.39202 9.36159 4.50693 9.36159 4.62243H11.9434C11.8863 4.1896 11.7428 3.90143 11.5421 3.69902V3.69902ZM9.01742 0.669183H12.2304V1.44852H9.01801V0.669183H9.01742Z" fill="#646364"/>
</svg>
