<svg width="24" height="24" viewBox="0 0 24 24" fill="none" xmlns="http://www.w3.org/2000/svg">
<path d="M13 18.25H12.5V17.25C12.5 16.9185 12.3683 16.6005 12.1339 16.3661C11.8995 16.1317 11.5815 16 11.25 16H6.75C6.41848 16 6.10054 16.1317 5.86612 16.3661C5.6317 16.6005 5.5 16.9185 5.5 17.25V18.25H5V17.25C5 16.7859 5.18437 16.3408 5.51256 16.0126C5.84075 15.6844 6.28587 15.5 6.75 15.5H11.25C11.7141 15.5 12.1592 15.6844 12.4874 16.0126C12.8156 16.3408 13 16.7859 13 17.25V18.25ZM10.3889 13.3287C9.9778 13.6034 9.49445 13.75 9 13.75C8.33696 13.75 7.70107 13.4866 7.23223 13.0178C6.76339 12.5489 6.5 11.913 6.5 11.25C6.5 10.7555 6.64662 10.2722 6.92133 9.86108C7.19603 9.44995 7.58648 9.12952 8.04329 8.9403C8.50011 8.75108 9.00277 8.70158 9.48773 8.79804C9.97268 8.8945 10.4181 9.1326 10.7678 9.48223C11.1174 9.83187 11.3555 10.2773 11.452 10.7623C11.5484 11.2472 11.4989 11.7499 11.3097 12.2067C11.1205 12.6635 10.8 13.054 10.3889 13.3287ZM10.1111 9.58706C9.78224 9.3673 9.39556 9.25 9 9.25C8.46957 9.25 7.96086 9.46072 7.58579 9.83579C7.21071 10.2109 7 10.7196 7 11.25C7 11.6456 7.1173 12.0322 7.33706 12.3611C7.55682 12.69 7.86918 12.9464 8.23463 13.0978C8.60009 13.2491 9.00222 13.2887 9.39018 13.2116C9.77814 13.1344 10.1345 12.9439 10.4142 12.6642C10.6939 12.3845 10.8844 12.0281 10.9616 11.6402C11.0387 11.2522 10.9991 10.8501 10.8478 10.4846C10.6964 10.1192 10.44 9.80683 10.1111 9.58706Z" fill="#CDCFD0" stroke="#CDCFD0"/>
<path d="M21 14.25V21H3V6H12V4.5H3C2.60218 4.5 2.22064 4.65804 1.93934 4.93934C1.65804 5.22064 1.5 5.60218 1.5 6V21C1.5 21.3978 1.65804 21.7794 1.93934 22.0607C2.22064 22.342 2.60218 22.5 3 22.5H21C21.3978 22.5 21.7794 22.342 22.0607 22.0607C22.342 21.7794 22.5 21.3978 22.5 21V14.25H21Z" fill="#CDCFD0"/>
<path d="M15 14.25H19.5V15.75H15V14.25ZM16.5 17.25H19.5V18.75H16.5V17.25ZM24 7.5V6H22.4242C22.3275 5.53052 22.1411 5.08411 21.8752 4.68525L22.9928 3.56775L21.9323 2.50725L20.8148 3.62475C20.4159 3.35888 19.9695 3.17248 19.5 3.07575V1.5H18V3.07575C17.5305 3.17248 17.0841 3.35888 16.6852 3.62475L15.5677 2.50725L14.5073 3.56775L15.6248 4.68525C15.3589 5.08411 15.1725 5.53052 15.0757 6H13.5V7.5H15.0757C15.1725 7.96948 15.3589 8.41589 15.6248 8.81475L14.5073 9.93225L15.5677 10.9928L16.6852 9.87525C17.0841 10.1411 17.5305 10.3275 18 10.4242V12H19.5V10.4242C19.9695 10.3275 20.4159 10.1411 20.8148 9.87525L21.9323 10.9928L22.9928 9.93225L21.8752 8.81475C22.1411 8.41589 22.3275 7.96948 22.4242 7.5H24ZM18.75 9C18.305 9 17.87 8.86804 17.5 8.62081C17.13 8.37357 16.8416 8.02217 16.6713 7.61104C16.501 7.1999 16.4564 6.7475 16.5432 6.31105C16.63 5.87459 16.8443 5.47368 17.159 5.15901C17.4737 4.84434 17.8746 4.63005 18.311 4.54323C18.7475 4.45642 19.1999 4.50097 19.611 4.67127C20.0222 4.84157 20.3736 5.12996 20.6208 5.49997C20.868 5.86998 21 6.30499 21 6.75C20.9994 7.34655 20.7622 7.9185 20.3403 8.34033C19.9185 8.76216 19.3466 8.9994 18.75 9Z" fill="#CDCFD0"/>
</svg>
