<svg width="14" height="14" viewBox="0 0 14 14" fill="none" xmlns="http://www.w3.org/2000/svg">
<path d="M12.8337 7.00009C12.8346 7.76843 12.6834 8.52935 12.3885 9.23888C12.0937 9.94841 11.6612 10.5925 11.116 11.1339C10.5753 11.6737 9.9335 12.1016 9.22731 12.3932C8.52111 12.6848 7.76437 12.8344 7.00033 12.8334C3.77858 12.8334 1.167 10.2218 1.167 7.00009C1.16496 5.50435 1.7395 4.06538 2.77116 2.98238C3.31551 2.40797 3.97135 1.95068 4.69854 1.63849C5.42572 1.3263 6.20896 1.16578 7.00033 1.16675C7.76437 1.16576 8.52111 1.31535 9.22731 1.60697C9.9335 1.89859 10.5753 2.32651 11.116 2.86629C11.6612 3.40769 12.0937 4.05177 12.3885 4.7613C12.6834 5.47083 12.8346 6.23175 12.8337 7.00009V7.00009Z" stroke="#646364" stroke-linecap="round" stroke-linejoin="round"/>
<path d="M12.8336 7.00003C11.9825 7.00003 9.63458 6.6792 7.53312 7.60174C5.25024 8.6042 3.59737 10.1591 2.87695 11.1262" stroke="#646364" stroke-linecap="round" stroke-linejoin="round"/>
<path d="M4.8125 1.59082C5.72542 2.43345 7.7175 4.57865 8.45833 6.7084C9.19917 8.83815 9.47333 11.4567 9.6425 12.2019" stroke="#646364" stroke-linecap="round" stroke-linejoin="round"/>
<path d="M1.21191 6.27096C2.31383 6.33746 5.23079 6.39725 7.09746 5.60012C8.96412 4.803 10.5703 3.33679 11.1213 2.87158M1.6045 9.22058C2.11851 10.4648 3.04554 11.4939 4.2295 12.1346" stroke="#646364" stroke-linecap="round" stroke-linejoin="round"/>
<path d="M1.167 7.00009C1.16496 5.50435 1.7395 4.06538 2.77116 2.98238M7.00033 1.16675C6.20896 1.16578 5.42572 1.3263 4.69854 1.63849C3.97135 1.95068 3.31551 2.40797 2.77116 2.98238M9.33366 1.65209C9.99797 1.94274 10.6024 2.35449 11.116 2.86629C11.6612 3.40769 12.0937 4.05177 12.3885 4.7613C12.6834 5.47083 12.8346 6.23174 12.8337 7.00009C12.8337 7.71817 12.7039 8.40621 12.4662 9.04175M7.00033 12.8334C7.76437 12.8344 8.52111 12.6848 9.22731 12.3932C9.9335 12.1016 10.5753 11.6737 11.116 11.1339" stroke="#646364" stroke-linecap="round" stroke-linejoin="round"/>
</svg>
