<svg width="10" height="10" viewBox="0 0 14 14" fill="none" xmlns="http://www.w3.org/2000/svg">
<path d="M12.4252 3.41293L12.4251 3.41288L12.419 3.41902L12.0589 3.77917L10.2208 1.94108L10.5809 1.58093L10.2274 1.22738L10.587 1.57473C10.7069 1.45057 10.8504 1.35153 11.009 1.2834C11.1676 1.21527 11.3382 1.17941 11.5108 1.17791C11.6834 1.17641 11.8546 1.2093 12.0143 1.27466C12.1741 1.34003 12.3192 1.43656 12.4413 1.55862C12.5634 1.68068 12.6599 1.82583 12.7253 1.98559C12.7906 2.14536 12.8235 2.31654 12.822 2.48915C12.8205 2.66177 12.7847 2.83235 12.7165 2.99096C12.6484 3.14956 12.5494 3.29301 12.4252 3.41293ZM8.24073 3.92111L10.0799 5.75898L3.03806 12.8H1.19995V10.9619L8.24073 3.92111Z" fill="#383637" stroke="#646364"/>
</svg>