<svg width="14" height="11" viewBox="0 0 14 11" fill="none" xmlns="http://www.w3.org/2000/svg">
<path d="M12.5979 1.92424L13.1666 1.5695V9.5C13.1666 9.95719 12.7905 10.3333 12.3333 10.3333H1.66665C1.20946 10.3333 0.833313 9.95719 0.833313 9.5V1.5695L1.40203 1.92424L6.73536 5.2509L6.99998 5.41596L7.2646 5.2509L12.5979 1.92424ZM12.9982 0.999999H12.3333H1.66665H1.0018C1.15447 0.798093 1.3964 0.666666 1.66665 0.666666H12.3333C12.6036 0.666666 12.8455 0.798093 12.9982 0.999999ZM12.3333 10H12.8333V9.5V2.83333V1.93121L12.0683 2.40933L6.99998 5.57704L1.93165 2.40933L1.16665 1.93121V2.83333V9.5V10H1.66665H12.3333Z" fill="#919090" stroke="#919090"/>
</svg>
