<svg width="20" height="20" viewBox="0 0 20 20" fill="none" xmlns="http://www.w3.org/2000/svg">
<path fill-rule="evenodd" clip-rule="evenodd" d="M19.5999 10C19.5999 12.5461 18.5885 14.9879 16.7881 16.7882C14.9878 18.5886 12.546 19.6 9.9999 19.6C7.45382 19.6 5.01203 18.5886 3.21168 16.7882C1.41133 14.9879 0.399902 12.5461 0.399902 10C0.399902 7.45392 1.41133 5.01213 3.21168 3.21178C5.01203 1.41143 7.45382 0.400002 9.9999 0.400002C12.546 0.400002 14.9878 1.41143 16.7881 3.21178C18.5885 5.01213 19.5999 7.45392 19.5999 10ZM9.9999 6.4C9.78906 6.3998 9.58189 6.45515 9.39924 6.56048C9.21659 6.66581 9.06492 6.81741 8.9595 7C8.88338 7.14145 8.77964 7.26618 8.65442 7.36679C8.5292 7.46741 8.38505 7.54185 8.23052 7.58572C8.076 7.62959 7.91424 7.64199 7.75483 7.62219C7.59542 7.60238 7.44161 7.55077 7.30252 7.47042C7.16343 7.39006 7.04189 7.2826 6.9451 7.1544C6.84831 7.02621 6.77825 6.87988 6.73906 6.7241C6.69987 6.56832 6.69235 6.40626 6.71696 6.24752C6.74157 6.08879 6.79779 5.93661 6.8823 5.8C7.27856 5.11374 7.89019 4.5774 8.62233 4.27416C9.35447 3.97092 10.1662 3.91773 10.9317 4.12283C11.6971 4.32794 12.3735 4.77987 12.8559 5.40856C13.3384 6.03725 13.5999 6.80755 13.5999 7.6C13.6001 8.34474 13.3694 9.07123 12.9396 9.67942C12.5098 10.2876 11.902 10.7476 11.1999 10.996V11.2C11.1999 11.5183 11.0735 11.8235 10.8484 12.0485C10.6234 12.2736 10.3182 12.4 9.9999 12.4C9.68164 12.4 9.37642 12.2736 9.15137 12.0485C8.92633 11.8235 8.7999 11.5183 8.7999 11.2V10C8.7999 9.68174 8.92633 9.37652 9.15137 9.15147C9.37642 8.92643 9.68164 8.8 9.9999 8.8C10.3182 8.8 10.6234 8.67357 10.8484 8.44853C11.0735 8.22349 11.1999 7.91826 11.1999 7.6C11.1999 7.28174 11.0735 6.97652 10.8484 6.75147C10.6234 6.52643 10.3182 6.4 9.9999 6.4ZM9.9999 16C10.3182 16 10.6234 15.8736 10.8484 15.6485C11.0735 15.4235 11.1999 15.1183 11.1999 14.8C11.1999 14.4817 11.0735 14.1765 10.8484 13.9515C10.6234 13.7264 10.3182 13.6 9.9999 13.6C9.68164 13.6 9.37642 13.7264 9.15137 13.9515C8.92633 14.1765 8.7999 14.4817 8.7999 14.8C8.7999 15.1183 8.92633 15.4235 9.15137 15.6485C9.37642 15.8736 9.68164 16 9.9999 16Z" fill="#CDCFD0"/>
</svg>
