<svg width="21" height="19" viewBox="0 0 21 19" fill="none" xmlns="http://www.w3.org/2000/svg">
<path d="M14.8041 11.2329C14.4635 10.9549 14.0719 10.7503 13.6541 10.6289C13.9392 10.2334 14.1594 9.79227 14.3039 9.32189C14.4855 8.73081 14.5424 8.11086 14.4737 7.50086L18.25 7.5C18.25 7.5 18.2501 7.5 18.2501 7.5C18.9397 7.50005 19.4997 8.05989 19.5 8.74948C19.5 8.74951 19.5 8.74953 19.5 8.74955C19.5 8.7497 19.5 8.74985 19.5 8.75L19.499 9.71148L19.499 9.72509L19.4997 9.73867C19.5504 10.6867 19.2316 11.3389 18.6283 11.7773C18.0213 12.2184 17.0683 12.4846 15.7529 12.5074C15.5475 12.0126 15.2223 11.5741 14.8041 11.2329ZM1.75 7.5H5.52743C5.46431 8.06858 5.5098 8.64598 5.66362 9.201C5.80609 9.71504 6.0381 10.1977 6.34709 10.6277C5.96607 10.7377 5.6059 10.9173 5.28573 11.16C4.82468 11.5095 4.46721 11.9742 4.24723 12.5043C3.00505 12.4667 2.0867 12.2079 1.47864 11.783C0.847949 11.3423 0.5 10.6883 0.5 9.75V8.75C0.5 8.06014 1.06014 7.5 1.75 7.5ZM13.999 14.7115L13.999 14.7251L13.9997 14.7387C14.0504 15.6867 13.7316 16.3389 13.1283 16.7773C12.4931 17.2389 11.479 17.509 10.067 17.509C8.66146 17.509 7.63775 17.2436 6.97864 16.783C6.34795 16.3423 6 15.6883 6 14.75V13.75C6 13.0601 6.56014 12.5 7.25 12.5H12.75C13.4397 12.5 13.9997 13.0599 14 13.7495C14 13.7495 14 13.7495 14 13.7496C14 13.7497 14 13.7499 14 13.75L13.999 14.7115ZM10 5.5C10.3283 5.5 10.6534 5.56466 10.9567 5.6903C11.26 5.81594 11.5356 6.00009 11.7678 6.23223C11.9999 6.46438 12.1841 6.73998 12.3097 7.04329C12.4353 7.34661 12.5 7.6717 12.5 8C12.5 8.32831 12.4353 8.65339 12.3097 8.95671C12.1841 9.26002 11.9999 9.53562 11.7678 9.76777C11.5356 9.99991 11.26 10.1841 10.9567 10.3097C10.6534 10.4353 10.3283 10.5 10 10.5C9.33696 10.5 8.70107 10.2366 8.23223 9.76777C7.76339 9.29893 7.5 8.66304 7.5 8C7.5 7.33696 7.76339 6.70107 8.23223 6.23223C8.70107 5.76339 9.33696 5.5 10 5.5ZM4.5 0.5C5.16304 0.5 5.79893 0.763392 6.26777 1.23223C6.73661 1.70107 7 2.33696 7 3C7 3.66304 6.73661 4.29893 6.26777 4.76777C5.79893 5.23661 5.16304 5.5 4.5 5.5C3.83696 5.5 3.20107 5.23661 2.73223 4.76777C2.26339 4.29893 2 3.66304 2 3C2 2.33696 2.26339 1.70107 2.73223 1.23223C3.20107 0.763392 3.83696 0.5 4.5 0.5ZM15.5 0.5C16.163 0.5 16.7989 0.763392 17.2678 1.23223C17.7366 1.70107 18 2.33696 18 3C18 3.66304 17.7366 4.29893 17.2678 4.76777C16.7989 5.23661 16.163 5.5 15.5 5.5C14.837 5.5 14.2011 5.23661 13.7322 4.76777C13.2634 4.29893 13 3.66304 13 3C13 2.33696 13.2634 1.70107 13.7322 1.23223C14.2011 0.763392 14.837 0.5 15.5 0.5Z" fill="#CDCFD0" stroke="#CDCFD0"/>
</svg>
