<svg width="21" height="21" viewBox="0 0 21 21" fill="none" xmlns="http://www.w3.org/2000/svg">
<rect x="0.980957" y="0.529297" width="19.9153" height="20" rx="9.95763" fill="#F7941E"/>
<path fill-rule="evenodd" clip-rule="evenodd" d="M12.3611 8.52933C12.2102 8.52933 12.0654 8.46913 11.9587 8.36196C11.852 8.2548 11.7921 8.10946 11.7921 7.9579C11.7921 7.80635 11.852 7.66101 11.9587 7.55384C12.0654 7.44668 12.2102 7.38647 12.3611 7.38647H15.2061C15.357 7.38647 15.5017 7.44668 15.6084 7.55384C15.7152 7.66101 15.7751 7.80635 15.7751 7.9579V10.815C15.7751 10.9666 15.7152 11.1119 15.6084 11.2191C15.5017 11.3263 15.357 11.3865 15.2061 11.3865C15.0552 11.3865 14.9105 11.3263 14.8037 11.2191C14.697 11.1119 14.6371 10.9666 14.6371 10.815V9.33733L12.1943 11.7905C12.0876 11.8976 11.9429 11.9578 11.7921 11.9578C11.6412 11.9578 11.4965 11.8976 11.3898 11.7905L10.085 10.4802L7.64228 12.9333C7.53497 13.0374 7.39123 13.095 7.24204 13.0937C7.09285 13.0924 6.95014 13.0323 6.84464 12.9264C6.73914 12.8204 6.6793 12.6771 6.678 12.5273C6.6767 12.3774 6.73406 12.2331 6.83771 12.1253L9.68274 9.26819C9.78945 9.16106 9.93415 9.10088 10.085 9.10088C10.2359 9.10088 10.3806 9.16106 10.4873 9.26819L11.7921 10.5785L13.8325 8.52933H12.3611Z" fill="#021E29"/>
</svg>
