<svg width="18" height="18" viewBox="0 0 18 18" fill="none" xmlns="http://www.w3.org/2000/svg">
<path fill-rule="evenodd" clip-rule="evenodd" d="M0.600098 1.80001C0.600098 1.48175 0.726526 1.17652 0.951569 0.951478C1.17661 0.726434 1.48184 0.600006 1.8001 0.600006H16.2001C16.5184 0.600006 16.8236 0.726434 17.0486 0.951478C17.2737 1.17652 17.4001 1.48175 17.4001 1.80001C17.4001 2.11827 17.2737 2.42349 17.0486 2.64853C16.8236 2.87358 16.5184 3.00001 16.2001 3.00001H1.8001C1.48184 3.00001 1.17661 2.87358 0.951569 2.64853C0.726526 2.42349 0.600098 2.11827 0.600098 1.80001ZM0.600098 6.60001C0.600098 6.28175 0.726526 5.97652 0.951569 5.75148C1.17661 5.52643 1.48184 5.40001 1.8001 5.40001H16.2001C16.5184 5.40001 16.8236 5.52643 17.0486 5.75148C17.2737 5.97652 17.4001 6.28175 17.4001 6.60001C17.4001 6.91827 17.2737 7.22349 17.0486 7.44853C16.8236 7.67358 16.5184 7.80001 16.2001 7.80001H1.8001C1.48184 7.80001 1.17661 7.67358 0.951569 7.44853C0.726526 7.22349 0.600098 6.91827 0.600098 6.60001V6.60001ZM0.600098 11.4C0.600098 11.0817 0.726526 10.7765 0.951569 10.5515C1.17661 10.3264 1.48184 10.2 1.8001 10.2H16.2001C16.5184 10.2 16.8236 10.3264 17.0486 10.5515C17.2737 10.7765 17.4001 11.0817 17.4001 11.4C17.4001 11.7183 17.2737 12.0235 17.0486 12.2485C16.8236 12.4736 16.5184 12.6 16.2001 12.6H1.8001C1.48184 12.6 1.17661 12.4736 0.951569 12.2485C0.726526 12.0235 0.600098 11.7183 0.600098 11.4ZM0.600098 16.2C0.600098 15.8817 0.726526 15.5765 0.951569 15.3515C1.17661 15.1264 1.48184 15 1.8001 15H16.2001C16.5184 15 16.8236 15.1264 17.0486 15.3515C17.2737 15.5765 17.4001 15.8817 17.4001 16.2C17.4001 16.5183 17.2737 16.8235 17.0486 17.0485C16.8236 17.2736 16.5184 17.4 16.2001 17.4H1.8001C1.48184 17.4 1.17661 17.2736 0.951569 17.0485C0.726526 16.8235 0.600098 16.5183 0.600098 16.2Z" fill="#919090"/>
</svg>
