<svg width="40" height="40" viewBox="0 0 40 40" fill="none" xmlns="http://www.w3.org/2000/svg">
<path d="M40 20C40 31.0457 31.0457 40 20 40C8.9543 40 0 31.0457 0 20C0 8.9543 8.9543 0 20 0C31.0457 0 40 8.9543 40 20ZM3.2 20C3.2 29.2784 10.7216 36.8 20 36.8C29.2784 36.8 36.8 29.2784 36.8 20C36.8 10.7216 29.2784 3.2 20 3.2C10.7216 3.2 3.2 10.7216 3.2 20Z" fill="#D5F0FC"/>
<path d="M20 1.6C20 0.716345 20.7175 -0.00665354 21.5983 0.0639625C24.4115 0.289492 27.1514 1.10847 29.6351 2.47387C32.5872 4.09679 35.0815 6.43911 36.8866 9.28346C38.6916 12.1278 39.749 15.3821 39.9605 18.7442C40.1385 21.5728 39.7129 24.4007 38.7192 27.0421C38.4081 27.8692 37.4484 28.2106 36.6488 27.8343C35.8493 27.4581 35.5139 26.5068 35.8124 25.6751C36.5839 23.5255 36.911 21.2356 36.7668 18.9451C36.5892 16.1209 35.701 13.3874 34.1847 10.9981C32.6684 8.60885 30.5732 6.6413 28.0935 5.27805C26.0823 4.17241 23.8711 3.49331 21.5976 3.27613C20.718 3.1921 20 2.48366 20 1.6Z" fill="#0F8BC1"/>
</svg>
