<svg width="7" height="9" viewBox="0 0 7 9" fill="none" xmlns="http://www.w3.org/2000/svg">
<path d="M4.48452 8.4801L1.44008 5.32455V4.59121H2.88452C3.30674 4.59121 3.67711 4.45418 3.99563 4.1801C4.31415 3.90603 4.49934 3.52455 4.55119 3.03566H0.884521V2.36899H4.49563C4.39934 2.01344 4.20119 1.72084 3.90119 1.49121C3.60119 1.26158 3.2623 1.14677 2.88452 1.14677H0.884521V0.480103H6.21785V1.14677H4.50674C4.67711 1.29492 4.82156 1.48381 4.94008 1.71344C5.0586 1.94307 5.14378 2.16158 5.19563 2.36899H6.21785V3.03566H5.21785C5.1586 3.70973 4.9086 4.24862 4.46785 4.65232C4.02711 5.05603 3.49934 5.25788 2.88452 5.25788H2.30674L5.40674 8.4801H4.48452Z" fill="black"/>
</svg>
