<svg width="21" height="20" viewBox="0 0 21 20" fill="none" xmlns="http://www.w3.org/2000/svg">
<path d="M9.84118 15.3889H11.3967L11.6745 13.8889C12.0449 13.7778 12.3597 13.6389 12.619 13.4722C12.8782 13.3056 13.119 13.1111 13.3412 12.8889L15.0634 13.4167L15.7856 11.9167L14.4801 11.0833C14.5541 10.6944 14.5912 10.3333 14.5912 10C14.5912 9.66667 14.5541 9.30556 14.4801 8.91667L15.7856 8.08333L15.0634 6.58333L13.3412 7.11111C13.119 6.88889 12.8782 6.69444 12.619 6.52778C12.3597 6.36111 12.0449 6.22222 11.6745 6.11111L11.3967 4.61111H9.84118L9.5634 6.11111C9.19303 6.22222 8.87822 6.36111 8.61896 6.52778C8.3597 6.69444 8.11896 6.88889 7.89674 7.11111L6.17451 6.58333L5.45229 8.08333L6.75785 8.91667C6.68377 9.30556 6.64674 9.66667 6.64674 10C6.64674 10.3333 6.68377 10.6944 6.75785 11.0833L5.45229 11.9167L6.17451 13.4167L7.89674 12.8889C8.11896 13.1111 8.3597 13.3056 8.61896 13.4722C8.87822 13.6389 9.19303 13.7778 9.5634 13.8889L9.84118 15.3889ZM10.619 12.3611C9.95229 12.3611 9.39211 12.1343 8.9384 11.6806C8.4847 11.2269 8.25785 10.6667 8.25785 10C8.25785 9.33333 8.4847 8.77315 8.9384 8.31944C9.39211 7.86574 9.95229 7.63889 10.619 7.63889C11.2856 7.63889 11.8458 7.86574 12.2995 8.31944C12.7532 8.77315 12.9801 9.33333 12.9801 10C12.9801 10.6667 12.7532 11.2269 12.2995 11.6806C11.8458 12.1343 11.2856 12.3611 10.619 12.3611ZM2.28562 20C1.84118 20 1.45229 19.8333 1.11896 19.5C0.785624 19.1667 0.618958 18.7778 0.618958 18.3333V1.66667C0.618958 1.22222 0.785624 0.833333 1.11896 0.5C1.45229 0.166667 1.84118 0 2.28562 0H18.9523C19.3967 0 19.7856 0.166667 20.119 0.5C20.4523 0.833333 20.619 1.22222 20.619 1.66667V18.3333C20.619 18.7778 20.4523 19.1667 20.119 19.5C19.7856 19.8333 19.3967 20 18.9523 20H2.28562ZM2.28562 18.3333H18.9523V1.66667H2.28562V18.3333Z" fill="#646364"/>
</svg>
