<svg width="21" height="21" viewBox="0 0 21 21" fill="none" xmlns="http://www.w3.org/2000/svg">
<path d="M6.63904 5.26868V1.26868M14.639 5.26868V1.26868M5.63904 9.26868H15.639M3.63904 19.2687H17.639C18.1695 19.2687 18.6782 19.058 19.0533 18.6829C19.4283 18.3078 19.639 17.7991 19.639 17.2687V5.26868C19.639 4.73824 19.4283 4.22954 19.0533 3.85446C18.6782 3.47939 18.1695 3.26868 17.639 3.26868H3.63904C3.10861 3.26868 2.5999 3.47939 2.22482 3.85446C1.84975 4.22954 1.63904 4.73824 1.63904 5.26868V17.2687C1.63904 17.7991 1.84975 18.3078 2.22482 18.6829C2.5999 19.058 3.10861 19.2687 3.63904 19.2687Z" stroke="#646364" stroke-width="2" stroke-linecap="round" stroke-linejoin="round"/>
</svg>
